<?xml version="1.0" encoding="UTF-8" standalone="no"?>
<svg
   xmlns:osb="http://www.openswatchbook.org/uri/2009/osb"
   xmlns:dc="http://purl.org/dc/elements/1.1/"
   xmlns:cc="http://creativecommons.org/ns#"
   xmlns:rdf="http://www.w3.org/1999/02/22-rdf-syntax-ns#"
   xmlns:svg="http://www.w3.org/2000/svg"
   xmlns="http://www.w3.org/2000/svg"
   xmlns:sodipodi="http://sodipodi.sourceforge.net/DTD/sodipodi-0.dtd"
   xmlns:inkscape="http://www.inkscape.org/namespaces/inkscape"
   sodipodi:docname="sketch14.svg"
   inkscape:version="1.0 (4035a4fb49, 2020-05-01)"
   id="svg8"
   version="1.1"
   viewBox="0 0 210 297"
   height="297mm"
   width="210mm">
  <defs
     id="defs2">
    <linearGradient
       gradientTransform="translate(59.795832,318.55324)"
       osb:paint="solid"
       id="linearGradient940">
      <stop
         id="stop938"
         offset="0"
         style="stop-color:#129d2a;stop-opacity:1;" />
    </linearGradient>
    <linearGradient
       gradientTransform="translate(59.266665,317.75949)"
       osb:paint="solid"
       id="linearGradient934">
      <stop
         id="stop932"
         offset="0"
         style="stop-color:#1b3ead;stop-opacity:1;" />
    </linearGradient>
    <linearGradient
       gradientTransform="translate(-59.266667,211.66667)"
       osb:paint="solid"
       id="linearGradient916">
      <stop
         id="stop914"
         offset="0"
         style="stop-color:#b40f01;stop-opacity:1;" />
    </linearGradient>
    <g
       id="g4616">
      <symbol
         id="symbol2022"
         overflow="visible">
        <path
           id="path3125"
           d=""
           style="stroke:none;" />
      </symbol>
      <symbol
         id="symbol3837"
         overflow="visible">
        <path
           id="path7296"
           d="M 2.375 -6.8125 C 2.375 -6.8125 2.375 -6.921875 2.25 -6.921875 C 2.03125 -6.921875 1.296875 -6.84375 1.03125 -6.8125 C 0.953125 -6.8125 0.84375 -6.796875 0.84375 -6.625 C 0.84375 -6.5 0.9375 -6.5 1.09375 -6.5 C 1.5625 -6.5 1.578125 -6.4375 1.578125 -6.328125 C 1.578125 -6.265625 1.5 -5.921875 1.453125 -5.71875 L 0.625 -2.46875 C 0.515625 -1.96875 0.46875 -1.796875 0.46875 -1.453125 C 0.46875 -0.515625 1 0.109375 1.734375 0.109375 C 2.90625 0.109375 4.140625 -1.375 4.140625 -2.8125 C 4.140625 -3.71875 3.609375 -4.40625 2.8125 -4.40625 C 2.359375 -4.40625 1.9375 -4.109375 1.640625 -3.8125 Z M 1.453125 -3.046875 C 1.5 -3.265625 1.5 -3.28125 1.59375 -3.390625 C 2.078125 -4.03125 2.53125 -4.1875 2.796875 -4.1875 C 3.15625 -4.1875 3.421875 -3.890625 3.421875 -3.25 C 3.421875 -2.65625 3.09375 -1.515625 2.90625 -1.140625 C 2.578125 -0.46875 2.125 -0.109375 1.734375 -0.109375 C 1.390625 -0.109375 1.0625 -0.375 1.0625 -1.109375 C 1.0625 -1.3125 1.0625 -1.5 1.21875 -2.125 Z M 1.453125 -3.046875 "
           style="stroke:none;" />
      </symbol>
    </g>
    <g
       id="g612">
      <symbol
         id="symbol3840"
         overflow="visible">
        <path
           id="path9866"
           d=""
           style="stroke:none;" />
      </symbol>
      <symbol
         id="symbol8597"
         overflow="visible">
        <path
           id="path1835"
           d="M 2.296875 -3.5 C 2.359375 -3.703125 2.453125 -4.09375 2.453125 -4.140625 C 2.453125 -4.3125 2.328125 -4.40625 2.15625 -4.40625 C 2.140625 -4.40625 1.859375 -4.390625 1.765625 -4.046875 L 0.328125 1.71875 C 0.296875 1.84375 0.296875 1.859375 0.296875 1.890625 C 0.296875 2.03125 0.40625 2.15625 0.578125 2.15625 C 0.78125 2.15625 0.90625 1.96875 0.921875 1.9375 C 0.96875 1.859375 1.09375 1.328125 1.46875 -0.203125 C 1.796875 0.0625 2.25 0.109375 2.4375 0.109375 C 3.140625 0.109375 3.53125 -0.34375 3.765625 -0.625 C 3.859375 -0.171875 4.234375 0.109375 4.671875 0.109375 C 5.015625 0.109375 5.25 -0.125 5.40625 -0.4375 C 5.578125 -0.796875 5.703125 -1.40625 5.703125 -1.421875 C 5.703125 -1.53125 5.609375 -1.53125 5.578125 -1.53125 C 5.484375 -1.53125 5.46875 -1.484375 5.4375 -1.34375 C 5.28125 -0.703125 5.09375 -0.109375 4.6875 -0.109375 C 4.421875 -0.109375 4.390625 -0.375 4.390625 -0.5625 C 4.390625 -0.78125 4.5 -1.25 4.578125 -1.609375 L 4.859375 -2.6875 C 4.890625 -2.828125 5 -3.203125 5.03125 -3.359375 C 5.078125 -3.59375 5.1875 -3.96875 5.1875 -4.03125 C 5.1875 -4.203125 5.046875 -4.296875 4.890625 -4.296875 C 4.84375 -4.296875 4.578125 -4.28125 4.5 -3.953125 L 4.03125 -2.078125 C 3.921875 -1.578125 3.8125 -1.171875 3.78125 -1.0625 C 3.765625 -1.015625 3.296875 -0.109375 2.484375 -0.109375 C 1.984375 -0.109375 1.75 -0.4375 1.75 -0.984375 C 1.75 -1.265625 1.8125 -1.546875 1.890625 -1.828125 Z M 2.296875 -3.5 "
           style="stroke:none;" />
      </symbol>
    </g>
    <g
       id="g1506">
      <symbol
         id="symbol3429"
         overflow="visible">
        <path
           id="path6815"
           d=""
           style="stroke:none;" />
      </symbol>
      <symbol
         id="symbol8803"
         overflow="visible">
        <path
           id="path4865"
           d="M 6.84375 -3.265625 C 7 -3.265625 7.1875 -3.265625 7.1875 -3.453125 C 7.1875 -3.65625 7 -3.65625 6.859375 -3.65625 L 0.890625 -3.65625 C 0.75 -3.65625 0.5625 -3.65625 0.5625 -3.453125 C 0.5625 -3.265625 0.75 -3.265625 0.890625 -3.265625 Z M 6.859375 -1.328125 C 7 -1.328125 7.1875 -1.328125 7.1875 -1.53125 C 7.1875 -1.71875 7 -1.71875 6.84375 -1.71875 L 0.890625 -1.71875 C 0.75 -1.71875 0.5625 -1.71875 0.5625 -1.53125 C 0.5625 -1.328125 0.75 -1.328125 0.890625 -1.328125 Z M 6.859375 -1.328125 "
           style="stroke:none;" />
      </symbol>
    </g>
    <g
       id="g2364">
      <symbol
         id="symbol5353"
         overflow="visible">
        <path
           id="path9276"
           d=""
           style="stroke:none;" />
      </symbol>
      <symbol
         id="symbol4788"
         overflow="visible">
        <path
           id="path7386"
           d="M 4.078125 -2.296875 L 6.859375 -2.296875 C 7 -2.296875 7.1875 -2.296875 7.1875 -2.5 C 7.1875 -2.6875 7 -2.6875 6.859375 -2.6875 L 4.078125 -2.6875 L 4.078125 -5.484375 C 4.078125 -5.625 4.078125 -5.8125 3.875 -5.8125 C 3.671875 -5.8125 3.671875 -5.625 3.671875 -5.484375 L 3.671875 -2.6875 L 0.890625 -2.6875 C 0.75 -2.6875 0.5625 -2.6875 0.5625 -2.5 C 0.5625 -2.296875 0.75 -2.296875 0.890625 -2.296875 L 3.671875 -2.296875 L 3.671875 0.5 C 3.671875 0.640625 3.671875 0.828125 3.875 0.828125 C 4.078125 0.828125 4.078125 0.640625 4.078125 0.5 Z M 4.078125 -2.296875 "
           style="stroke:none;" />
      </symbol>
    </g>
    <g
       id="g3270">
      <symbol
         overflow="visible"
         id="symbol6059">
        <path
           style="stroke:none;"
           d=""
           id="path710" />
      </symbol>
      <symbol
         overflow="visible"
         id="symbol3045">
        <path
           style="stroke:none;"
           d="M 4.421875 -2.5 C 4.421875 -3.5625 3.53125 -4.421875 2.5 -4.421875 C 1.421875 -4.421875 0.546875 -3.53125 0.546875 -2.5 C 0.546875 -1.4375 1.421875 -0.5625 2.5 -0.5625 C 3.53125 -0.5625 4.421875 -1.421875 4.421875 -2.5 Z M 2.5 -0.953125 C 1.625 -0.953125 0.953125 -1.65625 0.953125 -2.5 C 0.953125 -3.328125 1.640625 -4.03125 2.5 -4.03125 C 3.3125 -4.03125 4.03125 -3.34375 4.03125 -2.5 C 4.03125 -1.640625 3.3125 -0.953125 2.5 -0.953125 Z M 2.5 -0.953125 "
           id="path4505" />
      </symbol>
      <symbol
         overflow="visible"
         id="symbol408">
        <path
           style="stroke:none;"
           d=""
           id="path8832" />
      </symbol>
      <symbol
         overflow="visible"
         id="symbol7425">
        <path
           style="stroke:none;"
           d="M 3.515625 -1.265625 L 3.28125 -1.265625 C 3.265625 -1.109375 3.1875 -0.703125 3.09375 -0.640625 C 3.046875 -0.59375 2.515625 -0.59375 2.40625 -0.59375 L 1.125 -0.59375 C 1.859375 -1.234375 2.109375 -1.4375 2.515625 -1.765625 C 3.03125 -2.171875 3.515625 -2.609375 3.515625 -3.265625 C 3.515625 -4.109375 2.78125 -4.625 1.890625 -4.625 C 1.03125 -4.625 0.4375 -4.015625 0.4375 -3.375 C 0.4375 -3.03125 0.734375 -2.984375 0.8125 -2.984375 C 0.96875 -2.984375 1.171875 -3.109375 1.171875 -3.359375 C 1.171875 -3.484375 1.125 -3.734375 0.765625 -3.734375 C 0.984375 -4.21875 1.453125 -4.375 1.78125 -4.375 C 2.484375 -4.375 2.84375 -3.828125 2.84375 -3.265625 C 2.84375 -2.65625 2.40625 -2.1875 2.1875 -1.9375 L 0.515625 -0.265625 C 0.4375 -0.203125 0.4375 -0.1875 0.4375 0 L 3.3125 0 Z M 3.515625 -1.265625 "
           id="path857" />
      </symbol>
    </g>
    <g
       id="g2435">
      <symbol
         overflow="visible"
         id="symbol595">
        <path
           style="stroke:none;"
           d=""
           id="path6957" />
      </symbol>
      <symbol
         overflow="visible"
         id="symbol3730">
        <path
           style="stroke:none;"
           d="M 4.421875 -2.5 C 4.421875 -3.5625 3.53125 -4.421875 2.5 -4.421875 C 1.421875 -4.421875 0.546875 -3.53125 0.546875 -2.5 C 0.546875 -1.4375 1.421875 -0.5625 2.5 -0.5625 C 3.53125 -0.5625 4.421875 -1.421875 4.421875 -2.5 Z M 2.5 -0.953125 C 1.625 -0.953125 0.953125 -1.65625 0.953125 -2.5 C 0.953125 -3.328125 1.640625 -4.03125 2.5 -4.03125 C 3.3125 -4.03125 4.03125 -3.34375 4.03125 -2.5 C 4.03125 -1.640625 3.3125 -0.953125 2.5 -0.953125 Z M 2.5 -0.953125 "
           id="path7590" />
      </symbol>
      <symbol
         overflow="visible"
         id="symbol5149">
        <path
           style="stroke:none;"
           d=""
           id="path9134" />
      </symbol>
      <symbol
         overflow="visible"
         id="symbol5065">
        <path
           style="stroke:none;"
           d="M 3.515625 -1.265625 L 3.28125 -1.265625 C 3.265625 -1.109375 3.1875 -0.703125 3.09375 -0.640625 C 3.046875 -0.59375 2.515625 -0.59375 2.40625 -0.59375 L 1.125 -0.59375 C 1.859375 -1.234375 2.109375 -1.4375 2.515625 -1.765625 C 3.03125 -2.171875 3.515625 -2.609375 3.515625 -3.265625 C 3.515625 -4.109375 2.78125 -4.625 1.890625 -4.625 C 1.03125 -4.625 0.4375 -4.015625 0.4375 -3.375 C 0.4375 -3.03125 0.734375 -2.984375 0.8125 -2.984375 C 0.96875 -2.984375 1.171875 -3.109375 1.171875 -3.359375 C 1.171875 -3.484375 1.125 -3.734375 0.765625 -3.734375 C 0.984375 -4.21875 1.453125 -4.375 1.78125 -4.375 C 2.484375 -4.375 2.84375 -3.828125 2.84375 -3.265625 C 2.84375 -2.65625 2.40625 -2.1875 2.1875 -1.9375 L 0.515625 -0.265625 C 0.4375 -0.203125 0.4375 -0.1875 0.4375 0 L 3.3125 0 Z M 3.515625 -1.265625 "
           id="path1085" />
      </symbol>
    </g>
    <g
       id="g7330">
      <symbol
         overflow="visible"
         id="symbol5545">
        <path
           style="stroke:none;"
           d=""
           id="path9944" />
      </symbol>
      <symbol
         overflow="visible"
         id="symbol3472">
        <path
           style="stroke:none;"
           d="M 6.84375 -3.265625 C 7 -3.265625 7.1875 -3.265625 7.1875 -3.453125 C 7.1875 -3.65625 7 -3.65625 6.859375 -3.65625 L 0.890625 -3.65625 C 0.75 -3.65625 0.5625 -3.65625 0.5625 -3.453125 C 0.5625 -3.265625 0.75 -3.265625 0.890625 -3.265625 Z M 6.859375 -1.328125 C 7 -1.328125 7.1875 -1.328125 7.1875 -1.53125 C 7.1875 -1.71875 7 -1.71875 6.84375 -1.71875 L 0.890625 -1.71875 C 0.75 -1.71875 0.5625 -1.71875 0.5625 -1.53125 C 0.5625 -1.328125 0.75 -1.328125 0.890625 -1.328125 Z M 6.859375 -1.328125 "
           id="path134" />
      </symbol>
    </g>
  </defs>
  <sodipodi:namedview
     id="base"
     pagecolor="#ffffff"
     bordercolor="#666666"
     borderopacity="1.0"
     inkscape:pageopacity="0.0"
     inkscape:pageshadow="2"
     inkscape:zoom="0.70710678"
     inkscape:cx="481.20207"
     inkscape:cy="279.18421"
     inkscape:document-units="mm"
     inkscape:current-layer="layer1"
     inkscape:document-rotation="0"
     showgrid="true"
     guidetolerance="8.9"
     gridtolerance="7.6"
     objecttolerance="9.6"
     inkscape:window-width="1375"
     inkscape:window-height="1040"
     inkscape:window-x="78"
     inkscape:window-y="0"
     inkscape:window-maximized="0">
    <inkscape:grid
       type="xygrid"
       id="grid833"
       spacingx="8.4666667"
       spacingy="8.4666667" />
  </sodipodi:namedview>
  <metadata
     id="metadata5">
    <rdf:RDF>
      <cc:Work
         rdf:about="">
        <dc:format>image/svg+xml</dc:format>
        <dc:type
           rdf:resource="http://purl.org/dc/dcmitype/StillImage" />
        <dc:title></dc:title>
      </cc:Work>
    </rdf:RDF>
  </metadata>
  <g
     inkscape:label="Layer 1"
     inkscape:groupmode="layer"
     id="layer1">
    <text
       id="text850"
       y="14.604471"
       x="46.188515"
       style="font-style:normal;font-weight:normal;font-size:10.5833px;line-height:1.25;font-family:sans-serif;fill:#000000;fill-opacity:1;stroke:none;stroke-width:0.264583"
       xml:space="preserve"><tspan
         id="tspan852"
         style="font-style:normal;font-variant:normal;font-weight:normal;font-stretch:normal;font-family:'CMU Serif';-inkscape-font-specification:'CMU Serif';stroke-width:0.264583"
         y="14.604471"
         x="46.188515"
         sodipodi:role="line" /></text>
    <text
       id="text3947"
       y="33.866665"
       x="57.263393"
       style="font-style:normal;font-weight:normal;font-size:10.5833px;line-height:1.25;font-family:sans-serif;fill:#000000;fill-opacity:1;stroke:none;stroke-width:0.264583"
       xml:space="preserve"><tspan
         style="stroke-width:0.264583"
         y="33.866665"
         x="57.263393"
         id="tspan3945"
         sodipodi:role="line" /></text>
    <circle
       transform="matrix(1,0,-0.71843171,0.6955975,0,0)"
       ry="23.822952"
       rx="42.389423"
       cy="39.649445"
       cx="88.886169"
       id="path4918"
       style="opacity:1;fill:none;fill-opacity:1;stroke:#000000;stroke-width:0.225198;stroke-linecap:round;stroke-linejoin:round;stroke-miterlimit:4;stroke-dasharray:none;stroke-opacity:1;paint-order:normal" />
    <text
       xml:space="preserve"
       style="font-style:normal;font-weight:normal;font-size:10.5833px;line-height:1.25;font-family:sans-serif;fill:#000000;fill-opacity:1;stroke:none;stroke-width:0.264583"
       x="101.6"
       y="42.333332"
       id="text6156"><tspan
         sodipodi:role="line"
         id="tspan6154"
         x="101.6"
         y="42.333332"
         style="stroke-width:0.264583" /></text>
    <circle
       style="opacity:1;fill:none;fill-opacity:1;stroke:#000000;stroke-width:0.225198;stroke-linecap:round;stroke-linejoin:round;stroke-miterlimit:4;stroke-dasharray:none;stroke-opacity:1;paint-order:normal"
       id="circle10071"
       cx="88.886169"
       cy="39.649445"
       rx="42.389423"
       ry="23.822952"
       transform="matrix(1,0,-0.71843171,0.6955975,0,0)" />
    <circle
       style="opacity:1;fill:none;fill-opacity:1;stroke:#000000;stroke-width:0.225198;stroke-linecap:round;stroke-linejoin:round;stroke-miterlimit:4;stroke-dasharray:none;stroke-opacity:1;paint-order:normal"
       id="circle10073"
       cx="88.886169"
       cy="39.649445"
       rx="42.389423"
       ry="23.822952"
       transform="matrix(1,0,-0.71843171,0.6955975,0,0)" />
    <circle
       style="opacity:1;fill:none;fill-opacity:1;stroke:#000000;stroke-width:0.225198;stroke-linecap:round;stroke-linejoin:round;stroke-miterlimit:4;stroke-dasharray:none;stroke-opacity:1;paint-order:normal"
       id="circle10075"
       cx="88.886169"
       cy="39.649445"
       rx="42.389423"
       ry="23.822952"
       transform="matrix(1,0,-0.71843171,0.6955975,0,0)" />
    <circle
       style="opacity:1;fill:none;fill-opacity:1;stroke:#000000;stroke-width:0.225198;stroke-linecap:round;stroke-linejoin:round;stroke-miterlimit:4;stroke-dasharray:none;stroke-opacity:1;paint-order:normal"
       id="circle10077"
       cx="88.886169"
       cy="39.649445"
       rx="42.389423"
       ry="23.822952"
       transform="matrix(1,0,-0.71843171,0.6955975,0,0)" />
    <circle
       style="opacity:1;fill:none;fill-opacity:1;stroke:#000000;stroke-width:0.5;stroke-linecap:round;stroke-linejoin:round;stroke-opacity:1;stroke-miterlimit:4;stroke-dasharray:none"
       id="path1748"
       cx="17.778673"
       cy="48.69598"
       r="14.866184" />
    <path
       sodipodi:nodetypes="csssssc"
       d="m 43.279245,76.374435 c 10e-7,8.210367 -6.655817,14.866185 -14.866184,14.866185 -8.210367,0 -14.866184,-6.655818 -14.866184,-14.866185 0,-6.324529 3.949413,-11.726622 9.516528,-13.874569 1.659994,-0.640471 3.463818,-0.991615 5.349656,-0.991615 7.340641,0 13.438636,5.3204 14.648189,12.315403 0.143309,0.828774 0.217995,1.681055 0.217995,2.550781"
       style="opacity:1;fill:none;fill-opacity:1;stroke:#000000;stroke-width:0.5;stroke-linecap:round;stroke-linejoin:round;stroke-opacity:1;stroke-miterlimit:4;stroke-dasharray:none"
       id="circle1750" />
    <circle
       style="opacity:1;fill:none;fill-opacity:1;stroke:#000000;stroke-width:0.5;stroke-linecap:round;stroke-linejoin:round;stroke-opacity:1;stroke-miterlimit:4;stroke-dasharray:none"
       id="circle1752"
       cx="57.761944"
       cy="70.448219"
       r="14.866184" />
    <path
       style="fill:none;stroke:#000000;stroke-width:0.5;stroke-linecap:butt;stroke-linejoin:miter;stroke-opacity:1;stroke-miterlimit:4;stroke-dasharray:none"
       d="m 69.596983,63.610148 1.906662,-1.168482"
       id="path1766" />
    <path
       style="fill:none;stroke:#000000;stroke-width:0.5;stroke-linecap:butt;stroke-linejoin:miter;stroke-opacity:1;stroke-miterlimit:4;stroke-dasharray:none"
       d="m 31.022395,90.454426 0.165365,1.190625"
       id="path1768" />
    <path
       style="fill:none;stroke:#000000;stroke-width:0.5;stroke-linecap:butt;stroke-linejoin:miter;stroke-opacity:1;stroke-miterlimit:4;stroke-dasharray:none"
       d="M 2.8111979,53.181249 4.2994791,52.652083"
       id="path1770" />
    <path
       style="fill:none;stroke:#000000;stroke-width:0.5;stroke-linecap:butt;stroke-linejoin:miter;stroke-opacity:1;stroke-miterlimit:4;stroke-dasharray:none"
       d="m 52.618687,55.612106 1.543481,1.169305"
       id="path1772" />
    <path
       style="fill:none;stroke:#000000;stroke-width:0.5;stroke-linecap:butt;stroke-linejoin:miter;stroke-opacity:1;stroke-miterlimit:4;stroke-dasharray:none"
       d="m 53.133182,57.295904 0.608037,-2.104747"
       id="path1774" />
    <text
       xml:space="preserve"
       style="font-size:10.5833px;line-height:1.25;font-family:'CMU Serif';-inkscape-font-specification:'CMU Serif';stroke-width:0.5;stroke-miterlimit:4;stroke-dasharray:none"
       x="15.213542"
       y="51.858334"
       id="text1786"><tspan
         sodipodi:role="line"
         id="tspan1784"
         x="15.213542"
         y="51.858334"
         style="stroke-width:0.5;stroke-miterlimit:4;stroke-dasharray:none">1</tspan></text>
    <text
       id="text1790"
       y="79.904167"
       x="26.722918"
       style="font-size:10.5833px;line-height:1.25;font-family:'CMU Serif';-inkscape-font-specification:'CMU Serif';stroke-width:0.5;stroke-miterlimit:4;stroke-dasharray:none"
       xml:space="preserve"><tspan
         style="stroke-width:0.5;stroke-miterlimit:4;stroke-dasharray:none"
         y="79.904167"
         x="26.722918"
         id="tspan1788"
         sodipodi:role="line">2</tspan></text>
    <text
       xml:space="preserve"
       style="font-size:10.5833px;line-height:1.25;font-family:'CMU Serif';-inkscape-font-specification:'CMU Serif';stroke-width:0.5;stroke-miterlimit:4;stroke-dasharray:none"
       x="55.43021"
       y="72.760414"
       id="text1794"><tspan
         sodipodi:role="line"
         id="tspan1792"
         x="55.43021"
         y="72.760414"
         style="stroke-width:0.5;stroke-miterlimit:4;stroke-dasharray:none">3</tspan></text>
    <text
       xml:space="preserve"
       style="font-size:10.5833px;line-height:1.25;font-family:'CMU Serif';-inkscape-font-specification:'CMU Serif';white-space:pre;inline-size:0.132289;stroke-width:0.264583"
       x="211.53438"
       y="73.818741"
       id="text1838" />
    <circle
       r="14.866184"
       cy="50.666744"
       cx="105.05941"
       id="circle989"
       style="opacity:1;fill:none;fill-opacity:1;stroke:#000000;stroke-width:0.5;stroke-linecap:round;stroke-linejoin:round;stroke-opacity:1;stroke-miterlimit:4;stroke-dasharray:none" />
    <circle
       style="opacity:1;fill:none;fill-opacity:1;stroke:#000000;stroke-width:0.5;stroke-linecap:round;stroke-linejoin:round;stroke-opacity:1;stroke-miterlimit:4;stroke-dasharray:none"
       id="circle991"
       cx="110.66671"
       cy="77.051323"
       r="12.076877" />
    <circle
       r="14.866184"
       cy="64.08461"
       cx="134.32706"
       id="circle993"
       style="opacity:1;fill:none;fill-opacity:1;stroke:#000000;stroke-width:0.5;stroke-linecap:round;stroke-linejoin:round;stroke-opacity:1;stroke-miterlimit:4;stroke-dasharray:none" />
    <path
       id="path995"
       d="m 145.10376,55.791327 1.90666,-1.168482"
       style="fill:none;stroke:#000000;stroke-width:0.5;stroke-linecap:butt;stroke-linejoin:miter;stroke-opacity:1;stroke-miterlimit:4;stroke-dasharray:none" />
    <path
       id="path997"
       d="m 112.78647,88.489512 0.13434,0.967231"
       style="fill:none;stroke:#000000;stroke-width:0.5;stroke-linecap:butt;stroke-linejoin:miter;stroke-opacity:1;stroke-miterlimit:4;stroke-dasharray:none" />
    <path
       id="path999"
       d="m 90.091934,55.152011 1.488282,-0.529166"
       style="fill:none;stroke:#000000;stroke-width:0.5;stroke-linecap:butt;stroke-linejoin:miter;stroke-opacity:1;stroke-miterlimit:4;stroke-dasharray:none" />
    <path
       id="path1001"
       d="m 129.97755,49.116202 1.54348,1.169305"
       style="fill:none;stroke:#000000;stroke-width:0.5;stroke-linecap:butt;stroke-linejoin:miter;stroke-opacity:1;stroke-miterlimit:4;stroke-dasharray:none" />
    <path
       id="path1003"
       d="m 130.49205,50.8 0.60803,-2.104747"
       style="fill:none;stroke:#000000;stroke-width:0.5;stroke-linecap:butt;stroke-linejoin:miter;stroke-opacity:1;stroke-miterlimit:4;stroke-dasharray:none" />
    <text
       id="text1007"
       y="53.829098"
       x="102.49429"
       style="font-size:10.5833px;line-height:1.25;font-family:'CMU Serif';-inkscape-font-specification:'CMU Serif';stroke-width:0.5;stroke-miterlimit:4;stroke-dasharray:none"
       xml:space="preserve"><tspan
         style="stroke-width:0.5;stroke-miterlimit:4;stroke-dasharray:none"
         y="53.829098"
         x="102.49429"
         id="tspan1005"
         sodipodi:role="line">1</tspan></text>
    <text
       xml:space="preserve"
       style="font-size:10.5833px;line-height:1.25;font-family:'CMU Serif';-inkscape-font-specification:'CMU Serif';stroke-width:0.5;stroke-miterlimit:4;stroke-dasharray:none"
       x="108.97657"
       y="80.552017"
       id="text1011"><tspan
         sodipodi:role="line"
         id="tspan1009"
         x="108.97657"
         y="80.552017"
         style="stroke-width:0.5;stroke-miterlimit:4;stroke-dasharray:none">2</tspan></text>
    <text
       id="text1015"
       y="68.513474"
       x="133.8474"
       style="font-size:10.5833px;line-height:1.25;font-family:'CMU Serif';-inkscape-font-specification:'CMU Serif';stroke-width:0.5;stroke-miterlimit:4;stroke-dasharray:none"
       xml:space="preserve"><tspan
         style="stroke-width:0.5;stroke-miterlimit:4;stroke-dasharray:none"
         y="68.513474"
         x="133.8474"
         id="tspan1013"
         sodipodi:role="line">3</tspan></text>
    <path
       style="fill:none;stroke:#000000;stroke-width:0.5;stroke-linecap:butt;stroke-linejoin:miter;stroke-miterlimit:4;stroke-dasharray:none;stroke-opacity:1"
       d="m 253.34574,54.520537 2.43598,-1.492875"
       id="path1023" />
    <path
       style="fill:none;stroke:#000000;stroke-width:0.5;stroke-linecap:butt;stroke-linejoin:miter;stroke-miterlimit:4;stroke-dasharray:none;stroke-opacity:1"
       d="m 223.79094,80.903986 0.13434,0.96723"
       id="path1025" />
    <path
       style="fill:none;stroke:#000000;stroke-width:0.5;stroke-linecap:butt;stroke-linejoin:miter;stroke-miterlimit:4;stroke-dasharray:none;stroke-opacity:1"
       d="m 236.40933,48.648749 1.97198,1.493926"
       id="path1029" />
    <path
       style="fill:none;stroke:#000000;stroke-width:0.5;stroke-linecap:butt;stroke-linejoin:miter;stroke-miterlimit:4;stroke-dasharray:none;stroke-opacity:1"
       d="m 237.06667,50.8 0.77683,-2.689064"
       id="path1031" />
    <text
       xml:space="preserve"
       style="font-size:10.5833px;line-height:1.25;font-family:'CMU Serif';-inkscape-font-specification:'CMU Serif';stroke-width:0.5;stroke-miterlimit:4;stroke-dasharray:none"
       x="211.96201"
       y="61.256302"
       id="text1035"><tspan
         sodipodi:role="line"
         id="tspan1033"
         x="211.96201"
         y="61.256302"
         style="stroke-width:0.5;stroke-miterlimit:4;stroke-dasharray:none">1</tspan></text>
    <text
       id="text1039"
       y="75.81958"
       x="217.54886"
       style="font-size:10.5833px;line-height:1.25;font-family:'CMU Serif';-inkscape-font-specification:'CMU Serif';stroke-width:0.5;stroke-miterlimit:4;stroke-dasharray:none"
       xml:space="preserve"><tspan
         style="stroke-width:0.5;stroke-miterlimit:4;stroke-dasharray:none"
         y="75.81958"
         x="217.54886"
         id="tspan1037"
         sodipodi:role="line">2</tspan></text>
    <text
       xml:space="preserve"
       style="font-size:13.5214px;line-height:1.25;font-family:'CMU Serif';-inkscape-font-specification:'CMU Serif';stroke-width:0.5;stroke-miterlimit:4;stroke-dasharray:none"
       x="239.20341"
       y="66.217224"
       id="text1043"><tspan
         sodipodi:role="line"
         id="tspan1041"
         x="239.20341"
         y="66.217224"
         style="stroke-width:0.5;stroke-miterlimit:4;stroke-dasharray:none">3</tspan></text>
    <path
       sodipodi:nodetypes="cssc"
       id="path1045"
       d="m 225.59216,65.337708 c 0.88839,-8.651151 0.62384,-15.368581 -5.77868,-20.18602 -11.88122,-8.939765 -30.13106,5.686075 -24.13987,17.662767 2.94048,5.878167 20.74047,3.268411 29.91855,2.523253 z"
       style="fill:none;stroke:#000000;stroke-width:0.5;stroke-linecap:butt;stroke-linejoin:miter;stroke-miterlimit:4;stroke-dasharray:none;stroke-opacity:1" />
    <path
       sodipodi:nodetypes="cssc"
       id="path1047"
       d="m 225.59216,65.337708 c 0.9071,-5.314067 0.0454,-12.263462 9.89213,-15.464145 22.83112,-7.421191 28.86985,20.339892 16.44779,25.400188 -8.31391,3.386789 -20.76198,-4.131216 -26.33992,-9.936043 z"
       style="fill:none;stroke:#000000;stroke-width:0.5;stroke-linecap:butt;stroke-linejoin:miter;stroke-miterlimit:4;stroke-dasharray:none;stroke-opacity:1" />
    <path
       sodipodi:nodetypes="cssc"
       id="path1049"
       d="m 225.59216,65.337708 c 4.92555,4.399503 6.94484,8.529481 5.49757,12.745394 -2.29275,6.678783 -25.51043,2.700468 -23.15494,-5.857967 1.28448,-4.667028 8.68766,-5.957536 17.65737,-6.887427 z"
       style="fill:none;stroke:#000000;stroke-width:0.5;stroke-linecap:butt;stroke-linejoin:miter;stroke-miterlimit:4;stroke-dasharray:none;stroke-opacity:1" />
    <path
       id="path1051"
       d="m 194.44625,62.32203 1.48828,-0.529166"
       style="fill:none;stroke:#000000;stroke-width:0.5;stroke-linecap:butt;stroke-linejoin:miter;stroke-miterlimit:4;stroke-dasharray:none;stroke-opacity:1" />
    <text
       id="text1055"
       y="68.009529"
       x="31.791597"
       style="font-style:normal;font-weight:normal;font-size:8.85578px;line-height:1.25;font-family:sans-serif;fill:url(#linearGradient940);fill-opacity:1;stroke:none;stroke-width:0.5;stroke-miterlimit:4;stroke-dasharray:none"
       xml:space="preserve"><tspan
         style="font-style:normal;font-variant:normal;font-weight:normal;font-stretch:normal;font-family:'CMU Serif';-inkscape-font-specification:'CMU Serif';fill:url(#linearGradient940);fill-opacity:1;stroke-width:0.5;stroke-miterlimit:4;stroke-dasharray:none"
         y="68.009529"
         x="31.791597"
         id="tspan1053"
         sodipodi:role="line">e</tspan></text>
    <path
       id="path1058"
       style="opacity:1;fill:none;fill-opacity:1;stroke:url(#linearGradient940);stroke-width:0.5;stroke-linecap:round;stroke-linejoin:round;stroke-opacity:1;stroke-miterlimit:4;stroke-dasharray:none"
       d="m 23.063405,62.499866 c 1.659994,-0.640471 3.463818,-0.991615 5.349656,-0.991615 7.340641,0 13.438636,5.3204 14.648189,12.315403"
       sodipodi:nodetypes="csc" />
    <path
       sodipodi:nodetypes="csc"
       d="m 108.03157,65.262783 c 0.84822,-0.188773 1.73005,-0.288337 2.63514,-0.288337 4.58813,0 8.57869,2.558545 10.62273,6.32671"
       style="opacity:1;fill:none;fill-opacity:1;stroke:url(#linearGradient940);stroke-width:0.5;stroke-linecap:round;stroke-linejoin:round;stroke-opacity:1;stroke-miterlimit:4;stroke-dasharray:none"
       id="circle1060" />
    <path
       id="path1063"
       d="m 160.83695,62.045516 h 21.53056 l -3.252,-2.808563"
       style="fill:none;stroke:#000000;stroke-width:0.740572;stroke-linecap:round;stroke-linejoin:round;stroke-miterlimit:4;stroke-dasharray:none;stroke-opacity:1" />
    <path
       id="path1065"
       d="m 182.36751,62.045516 -3.02773,2.674822"
       style="fill:none;stroke:#000000;stroke-width:0.740572;stroke-linecap:round;stroke-linejoin:round;stroke-miterlimit:4;stroke-dasharray:none;stroke-opacity:1" />
  </g>
</svg>
