<?xml version="1.0" encoding="UTF-8" standalone="no"?>
<svg
   xmlns:dc="http://purl.org/dc/elements/1.1/"
   xmlns:cc="http://creativecommons.org/ns#"
   xmlns:rdf="http://www.w3.org/1999/02/22-rdf-syntax-ns#"
   xmlns:svg="http://www.w3.org/2000/svg"
   xmlns="http://www.w3.org/2000/svg"
   xmlns:sodipodi="http://sodipodi.sourceforge.net/DTD/sodipodi-0.dtd"
   xmlns:inkscape="http://www.inkscape.org/namespaces/inkscape"
   sodipodi:docname="sketch08.svg"
   inkscape:version="1.0 (4035a4fb49, 2020-05-01)"
   id="svg8"
   version="1.1"
   viewBox="0 0 210 297"
   height="297mm"
   width="210mm">
  <defs
     id="defs2">
    <g
       id="g4616">
      <symbol
         id="symbol2022"
         overflow="visible">
        <path
           id="path3125"
           d=""
           style="stroke:none;" />
      </symbol>
      <symbol
         id="symbol3837"
         overflow="visible">
        <path
           id="path7296"
           d="M 2.375 -6.8125 C 2.375 -6.8125 2.375 -6.921875 2.25 -6.921875 C 2.03125 -6.921875 1.296875 -6.84375 1.03125 -6.8125 C 0.953125 -6.8125 0.84375 -6.796875 0.84375 -6.625 C 0.84375 -6.5 0.9375 -6.5 1.09375 -6.5 C 1.5625 -6.5 1.578125 -6.4375 1.578125 -6.328125 C 1.578125 -6.265625 1.5 -5.921875 1.453125 -5.71875 L 0.625 -2.46875 C 0.515625 -1.96875 0.46875 -1.796875 0.46875 -1.453125 C 0.46875 -0.515625 1 0.109375 1.734375 0.109375 C 2.90625 0.109375 4.140625 -1.375 4.140625 -2.8125 C 4.140625 -3.71875 3.609375 -4.40625 2.8125 -4.40625 C 2.359375 -4.40625 1.9375 -4.109375 1.640625 -3.8125 Z M 1.453125 -3.046875 C 1.5 -3.265625 1.5 -3.28125 1.59375 -3.390625 C 2.078125 -4.03125 2.53125 -4.1875 2.796875 -4.1875 C 3.15625 -4.1875 3.421875 -3.890625 3.421875 -3.25 C 3.421875 -2.65625 3.09375 -1.515625 2.90625 -1.140625 C 2.578125 -0.46875 2.125 -0.109375 1.734375 -0.109375 C 1.390625 -0.109375 1.0625 -0.375 1.0625 -1.109375 C 1.0625 -1.3125 1.0625 -1.5 1.21875 -2.125 Z M 1.453125 -3.046875 "
           style="stroke:none;" />
      </symbol>
    </g>
    <g
       id="g612">
      <symbol
         id="symbol3840"
         overflow="visible">
        <path
           id="path9866"
           d=""
           style="stroke:none;" />
      </symbol>
      <symbol
         id="symbol8597"
         overflow="visible">
        <path
           id="path1835"
           d="M 2.296875 -3.5 C 2.359375 -3.703125 2.453125 -4.09375 2.453125 -4.140625 C 2.453125 -4.3125 2.328125 -4.40625 2.15625 -4.40625 C 2.140625 -4.40625 1.859375 -4.390625 1.765625 -4.046875 L 0.328125 1.71875 C 0.296875 1.84375 0.296875 1.859375 0.296875 1.890625 C 0.296875 2.03125 0.40625 2.15625 0.578125 2.15625 C 0.78125 2.15625 0.90625 1.96875 0.921875 1.9375 C 0.96875 1.859375 1.09375 1.328125 1.46875 -0.203125 C 1.796875 0.0625 2.25 0.109375 2.4375 0.109375 C 3.140625 0.109375 3.53125 -0.34375 3.765625 -0.625 C 3.859375 -0.171875 4.234375 0.109375 4.671875 0.109375 C 5.015625 0.109375 5.25 -0.125 5.40625 -0.4375 C 5.578125 -0.796875 5.703125 -1.40625 5.703125 -1.421875 C 5.703125 -1.53125 5.609375 -1.53125 5.578125 -1.53125 C 5.484375 -1.53125 5.46875 -1.484375 5.4375 -1.34375 C 5.28125 -0.703125 5.09375 -0.109375 4.6875 -0.109375 C 4.421875 -0.109375 4.390625 -0.375 4.390625 -0.5625 C 4.390625 -0.78125 4.5 -1.25 4.578125 -1.609375 L 4.859375 -2.6875 C 4.890625 -2.828125 5 -3.203125 5.03125 -3.359375 C 5.078125 -3.59375 5.1875 -3.96875 5.1875 -4.03125 C 5.1875 -4.203125 5.046875 -4.296875 4.890625 -4.296875 C 4.84375 -4.296875 4.578125 -4.28125 4.5 -3.953125 L 4.03125 -2.078125 C 3.921875 -1.578125 3.8125 -1.171875 3.78125 -1.0625 C 3.765625 -1.015625 3.296875 -0.109375 2.484375 -0.109375 C 1.984375 -0.109375 1.75 -0.4375 1.75 -0.984375 C 1.75 -1.265625 1.8125 -1.546875 1.890625 -1.828125 Z M 2.296875 -3.5 "
           style="stroke:none;" />
      </symbol>
    </g>
    <g
       id="g1506">
      <symbol
         id="symbol3429"
         overflow="visible">
        <path
           id="path6815"
           d=""
           style="stroke:none;" />
      </symbol>
      <symbol
         id="symbol8803"
         overflow="visible">
        <path
           id="path4865"
           d="M 6.84375 -3.265625 C 7 -3.265625 7.1875 -3.265625 7.1875 -3.453125 C 7.1875 -3.65625 7 -3.65625 6.859375 -3.65625 L 0.890625 -3.65625 C 0.75 -3.65625 0.5625 -3.65625 0.5625 -3.453125 C 0.5625 -3.265625 0.75 -3.265625 0.890625 -3.265625 Z M 6.859375 -1.328125 C 7 -1.328125 7.1875 -1.328125 7.1875 -1.53125 C 7.1875 -1.71875 7 -1.71875 6.84375 -1.71875 L 0.890625 -1.71875 C 0.75 -1.71875 0.5625 -1.71875 0.5625 -1.53125 C 0.5625 -1.328125 0.75 -1.328125 0.890625 -1.328125 Z M 6.859375 -1.328125 "
           style="stroke:none;" />
      </symbol>
    </g>
    <g
       id="g2364">
      <symbol
         id="symbol5353"
         overflow="visible">
        <path
           id="path9276"
           d=""
           style="stroke:none;" />
      </symbol>
      <symbol
         id="symbol4788"
         overflow="visible">
        <path
           id="path7386"
           d="M 4.078125 -2.296875 L 6.859375 -2.296875 C 7 -2.296875 7.1875 -2.296875 7.1875 -2.5 C 7.1875 -2.6875 7 -2.6875 6.859375 -2.6875 L 4.078125 -2.6875 L 4.078125 -5.484375 C 4.078125 -5.625 4.078125 -5.8125 3.875 -5.8125 C 3.671875 -5.8125 3.671875 -5.625 3.671875 -5.484375 L 3.671875 -2.6875 L 0.890625 -2.6875 C 0.75 -2.6875 0.5625 -2.6875 0.5625 -2.5 C 0.5625 -2.296875 0.75 -2.296875 0.890625 -2.296875 L 3.671875 -2.296875 L 3.671875 0.5 C 3.671875 0.640625 3.671875 0.828125 3.875 0.828125 C 4.078125 0.828125 4.078125 0.640625 4.078125 0.5 Z M 4.078125 -2.296875 "
           style="stroke:none;" />
      </symbol>
    </g>
    <g
       id="g3270">
      <symbol
         overflow="visible"
         id="symbol6059">
        <path
           style="stroke:none;"
           d=""
           id="path710" />
      </symbol>
      <symbol
         overflow="visible"
         id="symbol3045">
        <path
           style="stroke:none;"
           d="M 4.421875 -2.5 C 4.421875 -3.5625 3.53125 -4.421875 2.5 -4.421875 C 1.421875 -4.421875 0.546875 -3.53125 0.546875 -2.5 C 0.546875 -1.4375 1.421875 -0.5625 2.5 -0.5625 C 3.53125 -0.5625 4.421875 -1.421875 4.421875 -2.5 Z M 2.5 -0.953125 C 1.625 -0.953125 0.953125 -1.65625 0.953125 -2.5 C 0.953125 -3.328125 1.640625 -4.03125 2.5 -4.03125 C 3.3125 -4.03125 4.03125 -3.34375 4.03125 -2.5 C 4.03125 -1.640625 3.3125 -0.953125 2.5 -0.953125 Z M 2.5 -0.953125 "
           id="path4505" />
      </symbol>
      <symbol
         overflow="visible"
         id="symbol408">
        <path
           style="stroke:none;"
           d=""
           id="path8832" />
      </symbol>
      <symbol
         overflow="visible"
         id="symbol7425">
        <path
           style="stroke:none;"
           d="M 3.515625 -1.265625 L 3.28125 -1.265625 C 3.265625 -1.109375 3.1875 -0.703125 3.09375 -0.640625 C 3.046875 -0.59375 2.515625 -0.59375 2.40625 -0.59375 L 1.125 -0.59375 C 1.859375 -1.234375 2.109375 -1.4375 2.515625 -1.765625 C 3.03125 -2.171875 3.515625 -2.609375 3.515625 -3.265625 C 3.515625 -4.109375 2.78125 -4.625 1.890625 -4.625 C 1.03125 -4.625 0.4375 -4.015625 0.4375 -3.375 C 0.4375 -3.03125 0.734375 -2.984375 0.8125 -2.984375 C 0.96875 -2.984375 1.171875 -3.109375 1.171875 -3.359375 C 1.171875 -3.484375 1.125 -3.734375 0.765625 -3.734375 C 0.984375 -4.21875 1.453125 -4.375 1.78125 -4.375 C 2.484375 -4.375 2.84375 -3.828125 2.84375 -3.265625 C 2.84375 -2.65625 2.40625 -2.1875 2.1875 -1.9375 L 0.515625 -0.265625 C 0.4375 -0.203125 0.4375 -0.1875 0.4375 0 L 3.3125 0 Z M 3.515625 -1.265625 "
           id="path857" />
      </symbol>
    </g>
  </defs>
  <sodipodi:namedview
     id="base"
     pagecolor="#ffffff"
     bordercolor="#666666"
     borderopacity="1.0"
     inkscape:pageopacity="0.0"
     inkscape:pageshadow="2"
     inkscape:zoom="0.70710678"
     inkscape:cx="282.80638"
     inkscape:cy="213.82936"
     inkscape:document-units="mm"
     inkscape:current-layer="layer1"
     inkscape:document-rotation="0"
     showgrid="true"
     guidetolerance="8.9"
     gridtolerance="7.6"
     objecttolerance="9.6"
     inkscape:window-width="1375"
     inkscape:window-height="1040"
     inkscape:window-x="1998"
     inkscape:window-y="0"
     inkscape:window-maximized="0">
    <inkscape:grid
       type="xygrid"
       id="grid833"
       spacingx="8.4666667"
       spacingy="8.4666667" />
  </sodipodi:namedview>
  <metadata
     id="metadata5">
    <rdf:RDF>
      <cc:Work
         rdf:about="">
        <dc:format>image/svg+xml</dc:format>
        <dc:type
           rdf:resource="http://purl.org/dc/dcmitype/StillImage" />
        <dc:title />
      </cc:Work>
    </rdf:RDF>
  </metadata>
  <g
     inkscape:label="Layer 1"
     inkscape:groupmode="layer"
     id="layer1">
    <text
       id="text850"
       y="14.604471"
       x="46.188515"
       style="font-style:normal;font-weight:normal;font-size:10.5833px;line-height:1.25;font-family:sans-serif;fill:#000000;fill-opacity:1;stroke:none;stroke-width:0.264583"
       xml:space="preserve"><tspan
         id="tspan852"
         style="font-style:normal;font-variant:normal;font-weight:normal;font-stretch:normal;font-family:'CMU Serif';-inkscape-font-specification:'CMU Serif';stroke-width:0.264583"
         y="14.604471"
         x="46.188515"
         sodipodi:role="line" /></text>
    <text
       id="text3947"
       y="33.866665"
       x="57.263393"
       style="font-style:normal;font-weight:normal;font-size:10.5833px;line-height:1.25;font-family:sans-serif;fill:#000000;fill-opacity:1;stroke:none;stroke-width:0.264583"
       xml:space="preserve"><tspan
         style="stroke-width:0.264583"
         y="33.866665"
         x="57.263393"
         id="tspan3945"
         sodipodi:role="line" /></text>
    <circle
       transform="matrix(1,0,-0.71843171,0.6955975,0,0)"
       ry="23.822952"
       rx="42.389423"
       cy="39.649445"
       cx="88.886169"
       id="path4918"
       style="opacity:1;fill:none;fill-opacity:1;stroke:#000000;stroke-width:0.225198;stroke-linecap:round;stroke-linejoin:round;stroke-miterlimit:4;stroke-dasharray:none;stroke-opacity:1;paint-order:normal" />
    <path
       id="path4920"
       style="opacity:1;fill:none;fill-opacity:1;stroke:#c70000;stroke-width:0.3;stroke-linecap:round;stroke-linejoin:round;stroke-miterlimit:4;stroke-dasharray:none;stroke-opacity:1;paint-order:normal"
       d="M 39.033906,21.853289 A 4.8793127,12.483805 89.660793 0 1 51.35631,26.733076 4.8793127,12.483805 89.660793 0 1 38.713531,31.612863 4.8793127,12.483805 89.660793 0 1 26.391127,26.733076 4.8793127,12.483805 89.660793 0 1 39.033906,21.853289" />
    <path
       id="path4922"
       style="opacity:1;fill:none;fill-opacity:1;stroke:#1b5db8;stroke-width:0.3;stroke-linecap:round;stroke-linejoin:round;stroke-miterlimit:4;stroke-dasharray:none;stroke-opacity:1;paint-order:normal"
       d="M 81.701636,22.514678 A 5.2094057,13.328354 89.660793 0 1 94.857671,27.72459 5.2094057,13.328354 89.660793 0 1 81.359587,32.934502 5.2094057,13.328354 89.660793 0 1 68.203556,27.72459 5.2094057,13.328354 89.660793 0 1 81.701636,22.514678" />
    <text
       id="text4928"
       y="30.586535"
       x="37.943893"
       style="font-style:normal;font-weight:normal;font-size:5.75456px;line-height:1.25;font-family:sans-serif;fill:#000000;fill-opacity:1;stroke:none;stroke-width:0.125064;stroke-miterlimit:4;stroke-dasharray:none"
       xml:space="preserve"><tspan
         style="font-style:normal;font-variant:normal;font-weight:normal;font-stretch:normal;font-family:'CMU Serif';-inkscape-font-specification:'CMU Serif';stroke-width:0.125064;stroke-miterlimit:4;stroke-dasharray:none"
         y="30.586535"
         x="37.943893"
         id="tspan4926"
         sodipodi:role="line">1</tspan></text>
    <text
       xml:space="preserve"
       style="font-style:normal;font-weight:normal;font-size:6.45204px;line-height:1.25;font-family:sans-serif;fill:#000000;fill-opacity:1;stroke:none;stroke-width:0.0950276;stroke-miterlimit:4;stroke-dasharray:none"
       x="80.809258"
       y="30.343643"
       id="text4932"><tspan
         sodipodi:role="line"
         id="tspan4930"
         x="80.809258"
         y="30.343643"
         style="font-style:normal;font-variant:normal;font-weight:normal;font-stretch:normal;font-family:'CMU Serif';-inkscape-font-specification:'CMU Serif';stroke-width:0.0950276;stroke-miterlimit:4;stroke-dasharray:none">2</tspan></text>
    <text
       xml:space="preserve"
       style="font-style:normal;font-weight:normal;font-size:10.5833px;line-height:1.25;font-family:sans-serif;fill:#000000;fill-opacity:1;stroke:none;stroke-width:0.264583"
       x="101.6"
       y="42.333332"
       id="text6156"><tspan
         sodipodi:role="line"
         id="tspan6154"
         x="101.6"
         y="42.333332"
         style="stroke-width:0.264583" /></text>
    <circle
       style="opacity:1;fill:none;fill-opacity:1;stroke:#000000;stroke-width:0.225198;stroke-linecap:round;stroke-linejoin:round;stroke-miterlimit:4;stroke-dasharray:none;stroke-opacity:1;paint-order:normal"
       id="circle10071"
       cx="88.886169"
       cy="39.649445"
       rx="42.389423"
       ry="23.822952"
       transform="matrix(1,0,-0.71843171,0.6955975,0,0)" />
    <circle
       style="opacity:1;fill:none;fill-opacity:1;stroke:#000000;stroke-width:0.225198;stroke-linecap:round;stroke-linejoin:round;stroke-miterlimit:4;stroke-dasharray:none;stroke-opacity:1;paint-order:normal"
       id="circle10073"
       cx="88.886169"
       cy="39.649445"
       rx="42.389423"
       ry="23.822952"
       transform="matrix(1,0,-0.71843171,0.6955975,0,0)" />
    <circle
       style="opacity:1;fill:none;fill-opacity:1;stroke:#000000;stroke-width:0.225198;stroke-linecap:round;stroke-linejoin:round;stroke-miterlimit:4;stroke-dasharray:none;stroke-opacity:1;paint-order:normal"
       id="circle10075"
       cx="88.886169"
       cy="39.649445"
       rx="42.389423"
       ry="23.822952"
       transform="matrix(1,0,-0.71843171,0.6955975,0,0)" />
    <circle
       style="opacity:1;fill:none;fill-opacity:1;stroke:#000000;stroke-width:0.225198;stroke-linecap:round;stroke-linejoin:round;stroke-miterlimit:4;stroke-dasharray:none;stroke-opacity:1;paint-order:normal"
       id="circle10077"
       cx="88.886169"
       cy="39.649445"
       rx="42.389423"
       ry="23.822952"
       transform="matrix(1,0,-0.71843171,0.6955975,0,0)" />
    <path
       id="ellipse10692"
       style="opacity:1;fill:none;fill-opacity:1;stroke:#000000;stroke-width:0.3;stroke-linecap:round;stroke-linejoin:round;stroke-miterlimit:4;stroke-dasharray:none;stroke-opacity:1;paint-order:normal"
       d="M 60.272101,8.6937869 A 19.216026,49.164538 89.660793 0 1 108.801,27.91168 19.216026,49.164538 89.660793 0 1 59.010379,47.129574 19.216026,49.164538 89.660793 0 1 10.48148,27.91168 19.216026,49.164538 89.660793 0 1 60.272101,8.6937869" />
    <path
       id="ellipse10694"
       style="opacity:1;fill:none;fill-opacity:1;stroke:#000000;stroke-width:0.3;stroke-linecap:round;stroke-linejoin:round;stroke-miterlimit:4;stroke-dasharray:none;stroke-opacity:1;paint-order:normal"
       d="M 60.272103,95.741706 A 19.216026,49.164538 89.660793 0 1 108.801,114.9596 19.216026,49.164538 89.660793 0 1 59.010381,134.17749 19.216026,49.164538 89.660793 0 1 10.481482,114.9596 19.216026,49.164538 89.660793 0 1 60.272103,95.741706" />
    <path
       id="ellipse10696"
       style="opacity:1;fill:none;fill-opacity:1;stroke:#c70000;stroke-width:0.3;stroke-linecap:round;stroke-linejoin:round;stroke-miterlimit:4;stroke-dasharray:none;stroke-opacity:1;paint-order:normal"
       d="m 39.414708,109.47973 a 5.0812265,13.000405 89.660793 0 1 12.832324,5.08171 5.0812265,13.000405 89.660793 0 1 -13.165957,5.08173 5.0812265,13.000405 89.660793 0 1 -12.832323,-5.08173 5.0812265,13.000405 89.660793 0 1 13.165956,-5.08171" />
    <path
       id="ellipse10698"
       style="opacity:1;fill:none;fill-opacity:1;stroke:#1b5db8;stroke-width:0.3;stroke-linecap:round;stroke-linejoin:round;stroke-miterlimit:4;stroke-dasharray:none;stroke-opacity:1;paint-order:normal"
       d="m 81.69559,109.2178 a 5.0250546,12.856688 89.660793 0 1 12.690467,5.02555 5.0250546,12.856688 89.660793 0 1 -13.020412,5.02554 5.0250546,12.856688 89.660793 0 1 -12.690468,-5.02554 5.0250546,12.856688 89.660793 0 1 13.020413,-5.02555" />
    <text
       xml:space="preserve"
       style="font-style:normal;font-weight:normal;font-size:5.99269px;line-height:1.25;font-family:sans-serif;fill:#000000;fill-opacity:1;stroke:none;stroke-width:0.130239;stroke-miterlimit:4;stroke-dasharray:none"
       x="37.889931"
       y="117.21056"
       id="text10702"><tspan
         sodipodi:role="line"
         id="tspan10700"
         x="37.889931"
         y="117.21056"
         style="font-style:normal;font-variant:normal;font-weight:normal;font-stretch:normal;font-family:'CMU Serif';-inkscape-font-specification:'CMU Serif';stroke-width:0.130239;stroke-miterlimit:4;stroke-dasharray:none">1</tspan></text>
    <text
       id="text10706"
       y="116.76971"
       x="80.834785"
       style="font-style:normal;font-weight:normal;font-size:6.22371px;line-height:1.25;font-family:sans-serif;fill:#000000;fill-opacity:1;stroke:none;stroke-width:0.0916647;stroke-miterlimit:4;stroke-dasharray:none"
       xml:space="preserve"><tspan
         style="font-style:normal;font-variant:normal;font-weight:normal;font-stretch:normal;font-family:'CMU Serif';-inkscape-font-specification:'CMU Serif';stroke-width:0.0916647;stroke-miterlimit:4;stroke-dasharray:none"
         y="116.76971"
         x="80.834785"
         id="tspan10704"
         sodipodi:role="line">2</tspan></text>
    <path
       style="color:#000000;font-style:normal;font-variant:normal;font-weight:normal;font-stretch:normal;font-size:medium;line-height:normal;font-family:sans-serif;font-variant-ligatures:normal;font-variant-position:normal;font-variant-caps:normal;font-variant-numeric:normal;font-variant-alternates:normal;font-variant-east-asian:normal;font-feature-settings:normal;font-variation-settings:normal;text-indent:0;text-align:start;text-decoration:none;text-decoration-line:none;text-decoration-style:solid;text-decoration-color:#000000;letter-spacing:normal;word-spacing:normal;text-transform:none;writing-mode:lr-tb;direction:ltr;text-orientation:mixed;dominant-baseline:auto;baseline-shift:baseline;text-anchor:start;white-space:normal;shape-padding:0;shape-margin:0;inline-size:0;clip-rule:nonzero;display:inline;overflow:visible;visibility:visible;opacity:1;isolation:auto;mix-blend-mode:normal;color-interpolation:sRGB;color-interpolation-filters:linearRGB;solid-color:#000000;solid-opacity:1;vector-effect:none;fill:none;fill-opacity:1;fill-rule:nonzero;stroke:#1b5db8;stroke-width:0.3;stroke-linecap:butt;stroke-linejoin:miter;stroke-miterlimit:4;stroke-dasharray:2.4, 2.4;stroke-dashoffset:0;stroke-opacity:1;color-rendering:auto;image-rendering:auto;shape-rendering:auto;text-rendering:auto;enable-background:accumulate;stop-color:#000000;stop-opacity:1"
       d="m 94.239714,113.96341 c 0,0 -2.717072,-11.07465 -4.348178,-16.315231 C 88.553906,93.350508 81.762763,88.030598 76.2,84.198945 M 62.164782,77.570352 c -4.091534,-1.06105 -7.380298,-2.005379 -8.05749,-2.558113 0,-3.749484 21.517378,-12.180767 26.777889,-14.949142 4.71679,-2.482238 11.851329,-11.794966 12.442341,-16.958061 0.788789,-6.890864 1.46836,-15.553516 1.46836,-15.553516 m -26.599528,0.09327 c 0,0 0.33347,6.110886 0.18739,10.763163 -0.09223,2.936688 -0.71699,4.454552 -1.372778,6.981765 -0.61412,2.366623 -4.026259,5.746857 -6.419936,7.778565 -1.900549,1.61315 -10.983696,5.508226 -15.117057,6.913247 -4.269791,1.451397 -8.403508,2.995332 -12.052995,5.121484 -3.628038,2.113656 -6.607632,5.346452 -6.589154,9.301165 0.02294,4.909399 8.709634,8.451417 12.872992,10.162492 m 16.785187,8.466667 c 1.519921,0.696482 7.269154,3.815058 8.018749,4.788538 0.416935,0.54147 3.051388,4.813738 3.551302,8.642308 0.533204,4.08352 0.632394,7.47488 0.632394,7.47488"
       id="path10718"
       sodipodi:nodetypes="cscccssccssssssccssc" />
    <path
       style="fill:none;stroke:#c70000;stroke-width:0.264583;stroke-linecap:butt;stroke-linejoin:miter;stroke-miterlimit:4;stroke-dasharray:1.5875, 1.5875;stroke-dashoffset:0;stroke-opacity:1"
       d="m 63.086889,68.589562 c 1.856755,0.738693 3.256437,1.329883 4.646443,2.715645 0.530895,0.529273 1.250663,1.259814 1.058334,1.984375 -0.721937,2.719757 -4.565204,3.371253 -7.14375,4.497917 -5.773303,2.522573 -12.458106,2.429852 -18.25625,4.894792 -4.405552,1.872914 -5.058283,2.620875 -8.457265,5.991872 -2.290112,2.271257 -4.875201,5.768065 -5.948501,8.949438 -1.93116,5.724159 -2.626786,16.965789 -2.626786,16.965789"
       id="path10740"
       sodipodi:nodetypes="cssssssc" />
    <path
       sodipodi:nodetypes="cssc"
       id="path10751"
       d="M 63.903991,50.8 C 61.361364,48.498999 58.773787,46.777535 57.048748,43.840193 55.530722,41.255346 54.153714,38.309387 53.222832,35.45995 52.2742,32.55618 51.4127,26.581264 51.4127,26.581264"
       style="fill:none;stroke:#c70000;stroke-width:0.264583;stroke-linecap:butt;stroke-linejoin:miter;stroke-miterlimit:4;stroke-dasharray:1.5875, 1.5875;stroke-dashoffset:0;stroke-opacity:1" />
    <path
       sodipodi:nodetypes="cssssssc"
       id="path10753"
       d="m 52.168393,114.42466 c 0,0 -0.07197,-13.9739 2.134093,-18.915896 1.699234,-3.8066 3.65456,-5.696833 10.692022,-7.663987 6.395257,-1.787641 11.781362,-3.806937 18.079509,-5.911288 4.860814,-1.624106 8.186116,-2.399912 11.779937,-6.162578 0.90583,-0.948388 1.842096,-2.149981 1.870887,-3.461141 0.02353,-1.071409 -0.175249,-3.456729 -2.712786,-5.792514 -3.303614,-3.040953 -8.27282,-5.29409 -12.422592,-6.657225"
       style="fill:none;stroke:#c70000;stroke-width:0.264583;stroke-linecap:butt;stroke-linejoin:miter;stroke-miterlimit:4;stroke-dasharray:1.5875, 1.5875;stroke-dashoffset:0;stroke-opacity:1" />
    <path
       sodipodi:nodetypes="csssc"
       id="path10755"
       d="m 26.458333,27.119792 c 0,0 0.538866,5.692201 1.190625,8.466666 0.76536,3.258054 1.546326,6.601284 3.175,9.525 2.681685,4.814031 2.488307,4.824985 5.362277,8.843125 1.390793,1.944488 6.147098,6.264075 8.392163,6.55039"
       style="fill:none;stroke:#c70000;stroke-width:0.264583;stroke-linecap:butt;stroke-linejoin:miter;stroke-miterlimit:4;stroke-dasharray:1.5875, 1.5875;stroke-dashoffset:0;stroke-opacity:1" />
    <path
       sodipodi:nodetypes="cccccccc"
       id="path900"
       d="m 135.46666,25.4 v 16.933333 l 17.06588,6.82635 m 8.16093,3.264374 17.10653,6.842609 v 16.933333 l -42.33334,16.933333 v 16.933338"
       style="fill:none;stroke:#c70000;stroke-width:0.35;stroke-linecap:butt;stroke-linejoin:miter;stroke-opacity:1;stroke-miterlimit:4;stroke-dasharray:none" />
    <path
       style="fill:none;stroke:#1b5db8;stroke-width:0.35;stroke-linecap:butt;stroke-linejoin:miter;stroke-opacity:1;stroke-miterlimit:4;stroke-dasharray:none"
       d="m 177.8,25.4 v 16.933333 l -42.33334,16.933333 v 16.933333 l 17.19366,6.877462 m 8.4835,3.393401 16.65618,6.66247 v 16.933338"
       id="path902"
       sodipodi:nodetypes="cccccccc" />
    <path
       id="path904"
       d="m 127,25.4 h 59.26666"
       style="fill:none;stroke:#000000;stroke-width:0.35;stroke-linecap:butt;stroke-linejoin:miter;stroke-opacity:1;stroke-miterlimit:4;stroke-dasharray:none" />
    <path
       id="path906"
       d="M 186.26666,110.06667 H 127"
       style="fill:none;stroke:#000000;stroke-width:0.35;stroke-linecap:butt;stroke-linejoin:miter;stroke-opacity:1;stroke-miterlimit:4;stroke-dasharray:none" />
  </g>
</svg>
