<?xml version="1.0" encoding="UTF-8" standalone="no"?>
<svg
   xmlns:osb="http://www.openswatchbook.org/uri/2009/osb"
   xmlns:dc="http://purl.org/dc/elements/1.1/"
   xmlns:cc="http://creativecommons.org/ns#"
   xmlns:rdf="http://www.w3.org/1999/02/22-rdf-syntax-ns#"
   xmlns:svg="http://www.w3.org/2000/svg"
   xmlns="http://www.w3.org/2000/svg"
   xmlns:xlink="http://www.w3.org/1999/xlink"
   xmlns:sodipodi="http://sodipodi.sourceforge.net/DTD/sodipodi-0.dtd"
   xmlns:inkscape="http://www.inkscape.org/namespaces/inkscape"
   sodipodi:docname="sketch13.svg"
   inkscape:version="1.0 (4035a4fb49, 2020-05-01)"
   id="svg8"
   version="1.1"
   viewBox="0 0 210 297"
   height="297mm"
   width="210mm">
  <defs
     id="defs2">
    <linearGradient
       gradientTransform="translate(59.266665,317.75949)"
       osb:paint="solid"
       id="linearGradient940">
      <stop
         id="stop938"
         offset="0"
         style="stop-color:#129d2a;stop-opacity:1;" />
    </linearGradient>
    <linearGradient
       gradientTransform="translate(59.266665,317.75949)"
       osb:paint="solid"
       id="linearGradient934">
      <stop
         id="stop932"
         offset="0"
         style="stop-color:#1b3ead;stop-opacity:1;" />
    </linearGradient>
    <linearGradient
       gradientTransform="translate(-59.266667,211.66667)"
       osb:paint="solid"
       id="linearGradient916">
      <stop
         id="stop914"
         offset="0"
         style="stop-color:#b40f01;stop-opacity:1;" />
    </linearGradient>
    <g
       id="g4616">
      <symbol
         id="symbol2022"
         overflow="visible">
        <path
           id="path3125"
           d=""
           style="stroke:none;" />
      </symbol>
      <symbol
         id="symbol3837"
         overflow="visible">
        <path
           id="path7296"
           d="M 2.375 -6.8125 C 2.375 -6.8125 2.375 -6.921875 2.25 -6.921875 C 2.03125 -6.921875 1.296875 -6.84375 1.03125 -6.8125 C 0.953125 -6.8125 0.84375 -6.796875 0.84375 -6.625 C 0.84375 -6.5 0.9375 -6.5 1.09375 -6.5 C 1.5625 -6.5 1.578125 -6.4375 1.578125 -6.328125 C 1.578125 -6.265625 1.5 -5.921875 1.453125 -5.71875 L 0.625 -2.46875 C 0.515625 -1.96875 0.46875 -1.796875 0.46875 -1.453125 C 0.46875 -0.515625 1 0.109375 1.734375 0.109375 C 2.90625 0.109375 4.140625 -1.375 4.140625 -2.8125 C 4.140625 -3.71875 3.609375 -4.40625 2.8125 -4.40625 C 2.359375 -4.40625 1.9375 -4.109375 1.640625 -3.8125 Z M 1.453125 -3.046875 C 1.5 -3.265625 1.5 -3.28125 1.59375 -3.390625 C 2.078125 -4.03125 2.53125 -4.1875 2.796875 -4.1875 C 3.15625 -4.1875 3.421875 -3.890625 3.421875 -3.25 C 3.421875 -2.65625 3.09375 -1.515625 2.90625 -1.140625 C 2.578125 -0.46875 2.125 -0.109375 1.734375 -0.109375 C 1.390625 -0.109375 1.0625 -0.375 1.0625 -1.109375 C 1.0625 -1.3125 1.0625 -1.5 1.21875 -2.125 Z M 1.453125 -3.046875 "
           style="stroke:none;" />
      </symbol>
    </g>
    <g
       id="g612">
      <symbol
         id="symbol3840"
         overflow="visible">
        <path
           id="path9866"
           d=""
           style="stroke:none;" />
      </symbol>
      <symbol
         id="symbol8597"
         overflow="visible">
        <path
           id="path1835"
           d="M 2.296875 -3.5 C 2.359375 -3.703125 2.453125 -4.09375 2.453125 -4.140625 C 2.453125 -4.3125 2.328125 -4.40625 2.15625 -4.40625 C 2.140625 -4.40625 1.859375 -4.390625 1.765625 -4.046875 L 0.328125 1.71875 C 0.296875 1.84375 0.296875 1.859375 0.296875 1.890625 C 0.296875 2.03125 0.40625 2.15625 0.578125 2.15625 C 0.78125 2.15625 0.90625 1.96875 0.921875 1.9375 C 0.96875 1.859375 1.09375 1.328125 1.46875 -0.203125 C 1.796875 0.0625 2.25 0.109375 2.4375 0.109375 C 3.140625 0.109375 3.53125 -0.34375 3.765625 -0.625 C 3.859375 -0.171875 4.234375 0.109375 4.671875 0.109375 C 5.015625 0.109375 5.25 -0.125 5.40625 -0.4375 C 5.578125 -0.796875 5.703125 -1.40625 5.703125 -1.421875 C 5.703125 -1.53125 5.609375 -1.53125 5.578125 -1.53125 C 5.484375 -1.53125 5.46875 -1.484375 5.4375 -1.34375 C 5.28125 -0.703125 5.09375 -0.109375 4.6875 -0.109375 C 4.421875 -0.109375 4.390625 -0.375 4.390625 -0.5625 C 4.390625 -0.78125 4.5 -1.25 4.578125 -1.609375 L 4.859375 -2.6875 C 4.890625 -2.828125 5 -3.203125 5.03125 -3.359375 C 5.078125 -3.59375 5.1875 -3.96875 5.1875 -4.03125 C 5.1875 -4.203125 5.046875 -4.296875 4.890625 -4.296875 C 4.84375 -4.296875 4.578125 -4.28125 4.5 -3.953125 L 4.03125 -2.078125 C 3.921875 -1.578125 3.8125 -1.171875 3.78125 -1.0625 C 3.765625 -1.015625 3.296875 -0.109375 2.484375 -0.109375 C 1.984375 -0.109375 1.75 -0.4375 1.75 -0.984375 C 1.75 -1.265625 1.8125 -1.546875 1.890625 -1.828125 Z M 2.296875 -3.5 "
           style="stroke:none;" />
      </symbol>
    </g>
    <g
       id="g1506">
      <symbol
         id="symbol3429"
         overflow="visible">
        <path
           id="path6815"
           d=""
           style="stroke:none;" />
      </symbol>
      <symbol
         id="symbol8803"
         overflow="visible">
        <path
           id="path4865"
           d="M 6.84375 -3.265625 C 7 -3.265625 7.1875 -3.265625 7.1875 -3.453125 C 7.1875 -3.65625 7 -3.65625 6.859375 -3.65625 L 0.890625 -3.65625 C 0.75 -3.65625 0.5625 -3.65625 0.5625 -3.453125 C 0.5625 -3.265625 0.75 -3.265625 0.890625 -3.265625 Z M 6.859375 -1.328125 C 7 -1.328125 7.1875 -1.328125 7.1875 -1.53125 C 7.1875 -1.71875 7 -1.71875 6.84375 -1.71875 L 0.890625 -1.71875 C 0.75 -1.71875 0.5625 -1.71875 0.5625 -1.53125 C 0.5625 -1.328125 0.75 -1.328125 0.890625 -1.328125 Z M 6.859375 -1.328125 "
           style="stroke:none;" />
      </symbol>
    </g>
    <g
       id="g2364">
      <symbol
         id="symbol5353"
         overflow="visible">
        <path
           id="path9276"
           d=""
           style="stroke:none;" />
      </symbol>
      <symbol
         id="symbol4788"
         overflow="visible">
        <path
           id="path7386"
           d="M 4.078125 -2.296875 L 6.859375 -2.296875 C 7 -2.296875 7.1875 -2.296875 7.1875 -2.5 C 7.1875 -2.6875 7 -2.6875 6.859375 -2.6875 L 4.078125 -2.6875 L 4.078125 -5.484375 C 4.078125 -5.625 4.078125 -5.8125 3.875 -5.8125 C 3.671875 -5.8125 3.671875 -5.625 3.671875 -5.484375 L 3.671875 -2.6875 L 0.890625 -2.6875 C 0.75 -2.6875 0.5625 -2.6875 0.5625 -2.5 C 0.5625 -2.296875 0.75 -2.296875 0.890625 -2.296875 L 3.671875 -2.296875 L 3.671875 0.5 C 3.671875 0.640625 3.671875 0.828125 3.875 0.828125 C 4.078125 0.828125 4.078125 0.640625 4.078125 0.5 Z M 4.078125 -2.296875 "
           style="stroke:none;" />
      </symbol>
    </g>
    <g
       id="g3270">
      <symbol
         overflow="visible"
         id="symbol6059">
        <path
           style="stroke:none;"
           d=""
           id="path710" />
      </symbol>
      <symbol
         overflow="visible"
         id="symbol3045">
        <path
           style="stroke:none;"
           d="M 4.421875 -2.5 C 4.421875 -3.5625 3.53125 -4.421875 2.5 -4.421875 C 1.421875 -4.421875 0.546875 -3.53125 0.546875 -2.5 C 0.546875 -1.4375 1.421875 -0.5625 2.5 -0.5625 C 3.53125 -0.5625 4.421875 -1.421875 4.421875 -2.5 Z M 2.5 -0.953125 C 1.625 -0.953125 0.953125 -1.65625 0.953125 -2.5 C 0.953125 -3.328125 1.640625 -4.03125 2.5 -4.03125 C 3.3125 -4.03125 4.03125 -3.34375 4.03125 -2.5 C 4.03125 -1.640625 3.3125 -0.953125 2.5 -0.953125 Z M 2.5 -0.953125 "
           id="path4505" />
      </symbol>
      <symbol
         overflow="visible"
         id="symbol408">
        <path
           style="stroke:none;"
           d=""
           id="path8832" />
      </symbol>
      <symbol
         overflow="visible"
         id="symbol7425">
        <path
           style="stroke:none;"
           d="M 3.515625 -1.265625 L 3.28125 -1.265625 C 3.265625 -1.109375 3.1875 -0.703125 3.09375 -0.640625 C 3.046875 -0.59375 2.515625 -0.59375 2.40625 -0.59375 L 1.125 -0.59375 C 1.859375 -1.234375 2.109375 -1.4375 2.515625 -1.765625 C 3.03125 -2.171875 3.515625 -2.609375 3.515625 -3.265625 C 3.515625 -4.109375 2.78125 -4.625 1.890625 -4.625 C 1.03125 -4.625 0.4375 -4.015625 0.4375 -3.375 C 0.4375 -3.03125 0.734375 -2.984375 0.8125 -2.984375 C 0.96875 -2.984375 1.171875 -3.109375 1.171875 -3.359375 C 1.171875 -3.484375 1.125 -3.734375 0.765625 -3.734375 C 0.984375 -4.21875 1.453125 -4.375 1.78125 -4.375 C 2.484375 -4.375 2.84375 -3.828125 2.84375 -3.265625 C 2.84375 -2.65625 2.40625 -2.1875 2.1875 -1.9375 L 0.515625 -0.265625 C 0.4375 -0.203125 0.4375 -0.1875 0.4375 0 L 3.3125 0 Z M 3.515625 -1.265625 "
           id="path857" />
      </symbol>
    </g>
    <g
       id="g2435">
      <symbol
         overflow="visible"
         id="symbol595">
        <path
           style="stroke:none;"
           d=""
           id="path6957" />
      </symbol>
      <symbol
         overflow="visible"
         id="symbol3730">
        <path
           style="stroke:none;"
           d="M 4.421875 -2.5 C 4.421875 -3.5625 3.53125 -4.421875 2.5 -4.421875 C 1.421875 -4.421875 0.546875 -3.53125 0.546875 -2.5 C 0.546875 -1.4375 1.421875 -0.5625 2.5 -0.5625 C 3.53125 -0.5625 4.421875 -1.421875 4.421875 -2.5 Z M 2.5 -0.953125 C 1.625 -0.953125 0.953125 -1.65625 0.953125 -2.5 C 0.953125 -3.328125 1.640625 -4.03125 2.5 -4.03125 C 3.3125 -4.03125 4.03125 -3.34375 4.03125 -2.5 C 4.03125 -1.640625 3.3125 -0.953125 2.5 -0.953125 Z M 2.5 -0.953125 "
           id="path7590" />
      </symbol>
      <symbol
         overflow="visible"
         id="symbol5149">
        <path
           style="stroke:none;"
           d=""
           id="path9134" />
      </symbol>
      <symbol
         overflow="visible"
         id="symbol5065">
        <path
           style="stroke:none;"
           d="M 3.515625 -1.265625 L 3.28125 -1.265625 C 3.265625 -1.109375 3.1875 -0.703125 3.09375 -0.640625 C 3.046875 -0.59375 2.515625 -0.59375 2.40625 -0.59375 L 1.125 -0.59375 C 1.859375 -1.234375 2.109375 -1.4375 2.515625 -1.765625 C 3.03125 -2.171875 3.515625 -2.609375 3.515625 -3.265625 C 3.515625 -4.109375 2.78125 -4.625 1.890625 -4.625 C 1.03125 -4.625 0.4375 -4.015625 0.4375 -3.375 C 0.4375 -3.03125 0.734375 -2.984375 0.8125 -2.984375 C 0.96875 -2.984375 1.171875 -3.109375 1.171875 -3.359375 C 1.171875 -3.484375 1.125 -3.734375 0.765625 -3.734375 C 0.984375 -4.21875 1.453125 -4.375 1.78125 -4.375 C 2.484375 -4.375 2.84375 -3.828125 2.84375 -3.265625 C 2.84375 -2.65625 2.40625 -2.1875 2.1875 -1.9375 L 0.515625 -0.265625 C 0.4375 -0.203125 0.4375 -0.1875 0.4375 0 L 3.3125 0 Z M 3.515625 -1.265625 "
           id="path1085" />
      </symbol>
    </g>
    <g
       id="g7330">
      <symbol
         overflow="visible"
         id="symbol5545">
        <path
           style="stroke:none;"
           d=""
           id="path9944" />
      </symbol>
      <symbol
         overflow="visible"
         id="symbol3472">
        <path
           style="stroke:none;"
           d="M 6.84375 -3.265625 C 7 -3.265625 7.1875 -3.265625 7.1875 -3.453125 C 7.1875 -3.65625 7 -3.65625 6.859375 -3.65625 L 0.890625 -3.65625 C 0.75 -3.65625 0.5625 -3.65625 0.5625 -3.453125 C 0.5625 -3.265625 0.75 -3.265625 0.890625 -3.265625 Z M 6.859375 -1.328125 C 7 -1.328125 7.1875 -1.328125 7.1875 -1.53125 C 7.1875 -1.71875 7 -1.71875 6.84375 -1.71875 L 0.890625 -1.71875 C 0.75 -1.71875 0.5625 -1.71875 0.5625 -1.53125 C 0.5625 -1.328125 0.75 -1.328125 0.890625 -1.328125 Z M 6.859375 -1.328125 "
           id="path134" />
      </symbol>
    </g>
  </defs>
  <sodipodi:namedview
     id="base"
     pagecolor="#ffffff"
     bordercolor="#666666"
     borderopacity="1.0"
     inkscape:pageopacity="0.0"
     inkscape:pageshadow="2"
     inkscape:zoom="1"
     inkscape:cx="499.94739"
     inkscape:cy="255.34842"
     inkscape:document-units="mm"
     inkscape:current-layer="layer1"
     inkscape:document-rotation="0"
     showgrid="true"
     guidetolerance="8.9"
     gridtolerance="7.6"
     objecttolerance="9.6"
     inkscape:window-width="1375"
     inkscape:window-height="1040"
     inkscape:window-x="78"
     inkscape:window-y="0"
     inkscape:window-maximized="0">
    <inkscape:grid
       type="xygrid"
       id="grid833"
       spacingx="8.4666667"
       spacingy="8.4666667" />
  </sodipodi:namedview>
  <metadata
     id="metadata5">
    <rdf:RDF>
      <cc:Work
         rdf:about="">
        <dc:format>image/svg+xml</dc:format>
        <dc:type
           rdf:resource="http://purl.org/dc/dcmitype/StillImage" />
        <dc:title />
      </cc:Work>
    </rdf:RDF>
  </metadata>
  <g
     inkscape:label="Layer 1"
     inkscape:groupmode="layer"
     id="layer1">
    <text
       id="text850"
       y="14.604471"
       x="46.188515"
       style="font-style:normal;font-weight:normal;font-size:10.5833px;line-height:1.25;font-family:sans-serif;fill:#000000;fill-opacity:1;stroke:none;stroke-width:0.264583"
       xml:space="preserve"><tspan
         id="tspan852"
         style="font-style:normal;font-variant:normal;font-weight:normal;font-stretch:normal;font-family:'CMU Serif';-inkscape-font-specification:'CMU Serif';stroke-width:0.264583"
         y="14.604471"
         x="46.188515"
         sodipodi:role="line" /></text>
    <text
       id="text3947"
       y="33.866665"
       x="57.263393"
       style="font-style:normal;font-weight:normal;font-size:10.5833px;line-height:1.25;font-family:sans-serif;fill:#000000;fill-opacity:1;stroke:none;stroke-width:0.264583"
       xml:space="preserve"><tspan
         style="stroke-width:0.264583"
         y="33.866665"
         x="57.263393"
         id="tspan3945"
         sodipodi:role="line" /></text>
    <circle
       transform="matrix(1,0,-0.71843171,0.6955975,0,0)"
       ry="23.822952"
       rx="42.389423"
       cy="39.649445"
       cx="88.886169"
       id="path4918"
       style="opacity:1;fill:none;fill-opacity:1;stroke:#000000;stroke-width:0.225198;stroke-linecap:round;stroke-linejoin:round;stroke-miterlimit:4;stroke-dasharray:none;stroke-opacity:1;paint-order:normal" />
    <text
       xml:space="preserve"
       style="font-style:normal;font-weight:normal;font-size:10.5833px;line-height:1.25;font-family:sans-serif;fill:#000000;fill-opacity:1;stroke:none;stroke-width:0.264583"
       x="101.6"
       y="42.333332"
       id="text6156"><tspan
         sodipodi:role="line"
         id="tspan6154"
         x="101.6"
         y="42.333332"
         style="stroke-width:0.264583" /></text>
    <circle
       style="opacity:1;fill:none;fill-opacity:1;stroke:#000000;stroke-width:0.225198;stroke-linecap:round;stroke-linejoin:round;stroke-miterlimit:4;stroke-dasharray:none;stroke-opacity:1;paint-order:normal"
       id="circle10071"
       cx="88.886169"
       cy="39.649445"
       rx="42.389423"
       ry="23.822952"
       transform="matrix(1,0,-0.71843171,0.6955975,0,0)" />
    <circle
       style="opacity:1;fill:none;fill-opacity:1;stroke:#000000;stroke-width:0.225198;stroke-linecap:round;stroke-linejoin:round;stroke-miterlimit:4;stroke-dasharray:none;stroke-opacity:1;paint-order:normal"
       id="circle10073"
       cx="88.886169"
       cy="39.649445"
       rx="42.389423"
       ry="23.822952"
       transform="matrix(1,0,-0.71843171,0.6955975,0,0)" />
    <circle
       style="opacity:1;fill:none;fill-opacity:1;stroke:#000000;stroke-width:0.225198;stroke-linecap:round;stroke-linejoin:round;stroke-miterlimit:4;stroke-dasharray:none;stroke-opacity:1;paint-order:normal"
       id="circle10075"
       cx="88.886169"
       cy="39.649445"
       rx="42.389423"
       ry="23.822952"
       transform="matrix(1,0,-0.71843171,0.6955975,0,0)" />
    <circle
       style="opacity:1;fill:none;fill-opacity:1;stroke:#000000;stroke-width:0.225198;stroke-linecap:round;stroke-linejoin:round;stroke-miterlimit:4;stroke-dasharray:none;stroke-opacity:1;paint-order:normal"
       id="circle10077"
       cx="88.886169"
       cy="39.649445"
       rx="42.389423"
       ry="23.822952"
       transform="matrix(1,0,-0.71843171,0.6955975,0,0)" />
    <circle
       style="opacity:1;fill:none;fill-opacity:1;stroke:#000000;stroke-width:0.226257;stroke-linecap:round;stroke-linejoin:round;stroke-opacity:1"
       id="path1748"
       cx="17.778673"
       cy="48.69598"
       r="14.866184" />
    <circle
       r="14.866184"
       cy="76.374435"
       cx="28.413061"
       id="circle1750"
       style="opacity:1;fill:none;fill-opacity:1;stroke:#000000;stroke-width:0.226257;stroke-linecap:round;stroke-linejoin:round;stroke-opacity:1" />
    <circle
       style="opacity:1;fill:none;fill-opacity:1;stroke:#000000;stroke-width:0.226257;stroke-linecap:round;stroke-linejoin:round;stroke-opacity:1"
       id="circle1752"
       cx="57.761944"
       cy="70.448219"
       r="14.866184" />
    <circle
       r="14.866184"
       cy="43.60461"
       cx="109.41109"
       id="circle1754"
       style="opacity:1;fill:none;fill-opacity:1;stroke:#000000;stroke-width:0.226257;stroke-linecap:round;stroke-linejoin:round;stroke-opacity:1" />
    <circle
       style="opacity:1;fill:none;fill-opacity:1;stroke:#000000;stroke-width:0.226257;stroke-linecap:round;stroke-linejoin:round;stroke-opacity:1"
       id="circle1756"
       cx="115.44469"
       cy="72.743675"
       r="14.866184" />
    <path
       style="fill:none;stroke:#000000;stroke-width:0.264583px;stroke-linecap:butt;stroke-linejoin:miter;stroke-opacity:1"
       d="m 69.596983,63.610148 1.906662,-1.168482"
       id="path1766" />
    <path
       style="fill:none;stroke:#000000;stroke-width:0.264583px;stroke-linecap:butt;stroke-linejoin:miter;stroke-opacity:1"
       d="m 31.022395,90.454426 0.165365,1.190625"
       id="path1768" />
    <path
       style="fill:none;stroke:#000000;stroke-width:0.264583px;stroke-linecap:butt;stroke-linejoin:miter;stroke-opacity:1"
       d="M 2.8111979,53.181249 4.2994791,52.652083"
       id="path1770" />
    <path
       style="fill:none;stroke:#000000;stroke-width:0.264583px;stroke-linecap:butt;stroke-linejoin:miter;stroke-opacity:1"
       d="m 52.618687,55.612106 1.543481,1.169305"
       id="path1772" />
    <path
       style="fill:none;stroke:#000000;stroke-width:0.264583px;stroke-linecap:butt;stroke-linejoin:miter;stroke-opacity:1"
       d="m 53.133182,57.295904 0.608037,-2.104747"
       id="path1774" />
    <path
       style="fill:none;stroke:#000000;stroke-width:0.264583px;stroke-linecap:butt;stroke-linejoin:miter;stroke-opacity:1"
       d="m 101.22763,65.110474 2.24507,0.748352"
       id="path1776" />
    <path
       style="fill:none;stroke:#000000;stroke-width:0.264583px;stroke-linecap:butt;stroke-linejoin:miter;stroke-opacity:1"
       d="m 118.53333,33.866667 1.87089,-2.057977"
       id="path1778" />
    <path
       style="fill:none;stroke:#000000;stroke-width:0.264583px;stroke-linecap:butt;stroke-linejoin:miter;stroke-opacity:1"
       d="m 127.04587,65.391107 0.93544,-2.472595"
       id="path1780" />
    <path
       style="fill:none;stroke:#000000;stroke-width:0.264583px;stroke-linecap:butt;stroke-linejoin:miter;stroke-opacity:1"
       d="m 125.82979,63.800852 3.08696,0.18709"
       id="path1782" />
    <text
       xml:space="preserve"
       style="font-size:10.5833px;line-height:1.25;font-family:'CMU Serif';-inkscape-font-specification:'CMU Serif';stroke-width:0.264583"
       x="15.213542"
       y="51.858334"
       id="text1786"><tspan
         sodipodi:role="line"
         id="tspan1784"
         x="15.213542"
         y="51.858334"
         style="stroke-width:0.264583">1</tspan></text>
    <text
       id="text1790"
       y="79.904167"
       x="26.722918"
       style="font-size:10.5833px;line-height:1.25;font-family:'CMU Serif';-inkscape-font-specification:'CMU Serif';stroke-width:0.264583"
       xml:space="preserve"><tspan
         style="stroke-width:0.264583"
         y="79.904167"
         x="26.722918"
         id="tspan1788"
         sodipodi:role="line">2</tspan></text>
    <text
       xml:space="preserve"
       style="font-size:10.5833px;line-height:1.25;font-family:'CMU Serif';-inkscape-font-specification:'CMU Serif';stroke-width:0.264583"
       x="55.43021"
       y="72.760414"
       id="text1794"><tspan
         sodipodi:role="line"
         id="tspan1792"
         x="55.43021"
         y="72.760414"
         style="stroke-width:0.264583">3</tspan></text>
    <text
       id="text1798"
       y="48.763298"
       x="105.71922"
       style="font-size:10.5833px;line-height:1.25;font-family:'CMU Serif';-inkscape-font-specification:'CMU Serif';stroke-width:0.264583"
       xml:space="preserve"><tspan
         style="stroke-width:0.264583"
         y="48.763298"
         x="105.71922"
         id="tspan1796"
         sodipodi:role="line">1</tspan></text>
    <text
       xml:space="preserve"
       style="font-size:10.5833px;line-height:1.25;font-family:'CMU Serif';-inkscape-font-specification:'CMU Serif';stroke-width:0.264583"
       x="114.84734"
       y="76.941429"
       id="text1802"><tspan
         sodipodi:role="line"
         id="tspan1800"
         x="114.84734"
         y="76.941429"
         style="stroke-width:0.264583">2</tspan></text>
    <text
       xml:space="preserve"
       style="font-size:10.5833px;line-height:1.25;font-family:'CMU Serif';-inkscape-font-specification:'CMU Serif';white-space:pre;inline-size:0.132289;stroke-width:0.264583"
       x="211.53438"
       y="73.818741"
       id="text1838" />
    <g
       id="g1956"
       transform="translate(-11.062167,-16.241933)"
       inkscape:label="">
      <g
         id="g8211">
        <g
           style="fill:#000000;fill-opacity:1"
           id="g9696">
          <use
             xlink:href="#symbol3730"
             x="91.925003"
             y="81.962997"
             id="use6766"
             width="100%"
             height="100%" />
        </g>
        <g
           style="fill:#000000;fill-opacity:1"
           id="g3711">
          <use
             xlink:href="#symbol5065"
             x="96.906998"
             y="83.457001"
             id="use4085"
             width="100%"
             height="100%" />
        </g>
      </g>
    </g>
    <g
       id="g2091"
       transform="translate(49.792,-15.605208)"
       inkscape:label="">
      <g
         id="g1553">
        <g
           style="fill:#000000;fill-opacity:1"
           id="g5869">
          <use
             xlink:href="#symbol3472"
             x="91.925003"
             y="81.962997"
             id="use4432"
             width="100%"
             height="100%" />
        </g>
      </g>
    </g>
    <circle
       transform="rotate(70.604362)"
       style="opacity:1;fill:none;fill-opacity:1;stroke:#000000;stroke-width:0.149906;stroke-linecap:round;stroke-linejoin:round;stroke-opacity:1"
       id="circle943"
       cx="127.37194"
       cy="-158.71298"
       r="9.849535" />
    <circle
       transform="rotate(70.604362)"
       r="9.849535"
       cy="-139.40701"
       cx="131.36948"
       id="circle945"
       style="opacity:1;fill:none;fill-opacity:1;stroke:#000000;stroke-width:0.149906;stroke-linecap:round;stroke-linejoin:round;stroke-opacity:1" />
    <path
       id="path947"
       d="m 176.764,67.054037 0.0263,1.56769"
       style="fill:none;stroke:#000000;stroke-width:0.175298px;stroke-linecap:butt;stroke-linejoin:miter;stroke-opacity:1" />
    <path
       id="path949"
       d="m 200.09736,70.994747 1.69776,0.7164"
       style="fill:none;stroke:#000000;stroke-width:0.175298px;stroke-linecap:butt;stroke-linejoin:miter;stroke-opacity:1" />
    <path
       id="path951"
       d="m 182.26927,83.250767 1.75105,0.0405"
       style="fill:none;stroke:#000000;stroke-width:0.175298px;stroke-linecap:butt;stroke-linejoin:miter;stroke-opacity:1" />
    <path
       id="path953"
       d="m 182.99552,82.140887 0.56229,1.97035"
       style="fill:none;stroke:#000000;stroke-width:0.175298px;stroke-linecap:butt;stroke-linejoin:miter;stroke-opacity:1" />
    <text
       transform="rotate(-0.61103877)"
       id="text961"
       y="71.85051"
       x="189.32384"
       style="font-size:7.01193px;line-height:1.25;font-family:'CMU Serif';-inkscape-font-specification:'CMU Serif';stroke-width:0.175298"
       xml:space="preserve"><tspan
         style="stroke-width:0.175298"
         y="71.85051"
         x="189.32384"
         id="tspan959"
         sodipodi:role="line">2</tspan></text>
    <circle
       style="opacity:1;fill:none;fill-opacity:1;stroke:#000000;stroke-width:0.226257;stroke-linecap:round;stroke-linejoin:round;stroke-opacity:1"
       id="circle963"
       cx="216.22191"
       cy="72.484154"
       r="14.866184" />
    <text
       id="text967"
       y="75.060936"
       x="213.76201"
       style="font-size:10.5833px;line-height:1.25;font-family:'CMU Serif';-inkscape-font-specification:'CMU Serif';stroke-width:0.264583"
       xml:space="preserve"><tspan
         style="stroke-width:0.264583"
         y="75.060936"
         x="213.76201"
         id="tspan965"
         sodipodi:role="line">4</tspan></text>
    <path
       style="fill:none;stroke:#000000;stroke-width:0.264583px;stroke-linecap:butt;stroke-linejoin:miter;stroke-opacity:1"
       d="m 228.13047,65.580917 1.90667,-1.16849"
       id="path969" />
    <path
       style="fill:none;stroke:#000000;stroke-width:0.264583px;stroke-linecap:butt;stroke-linejoin:miter;stroke-opacity:1"
       d="m 211.15218,57.582867 1.54348,1.16931"
       id="path971" />
    <path
       style="fill:none;stroke:#000000;stroke-width:0.264583px;stroke-linecap:butt;stroke-linejoin:miter;stroke-opacity:1"
       d="m 211.66667,59.266667 0.60804,-2.10475"
       id="path973" />
    <text
       xml:space="preserve"
       style="font-size:7.01193px;line-height:1.25;font-family:'CMU Serif';-inkscape-font-specification:'CMU Serif';stroke-width:0.175298"
       x="173.80254"
       y="79.972954"
       id="text977"><tspan
         sodipodi:role="line"
         id="tspan975"
         x="173.80254"
         y="79.972954"
         style="stroke-width:0.175298">3</tspan></text>
    <circle
       style="opacity:1;fill:none;fill-opacity:1;stroke:#000000;stroke-width:0.226257;stroke-linecap:round;stroke-linejoin:round;stroke-opacity:1"
       id="circle979"
       cx="173.54829"
       cy="50.931339"
       r="14.866184" />
    <text
       id="text985"
       y="55.548885"
       x="169.53209"
       style="font-size:10.5833px;line-height:1.25;font-family:'CMU Serif';-inkscape-font-specification:'CMU Serif';stroke-width:0.264583"
       xml:space="preserve"><tspan
         style="stroke-width:0.264583"
         y="55.548885"
         x="169.53209"
         id="tspan983"
         sodipodi:role="line">1</tspan></text>
    <path
       id="path987"
       d="m 158.67842,55.945767 1.48828,-0.52916"
       style="fill:none;stroke:#000000;stroke-width:0.264583px;stroke-linecap:butt;stroke-linejoin:miter;stroke-opacity:1" />
  </g>
</svg>
