<?xml version="1.0" encoding="UTF-8" standalone="no"?>
<svg
   xmlns:osb="http://www.openswatchbook.org/uri/2009/osb"
   xmlns:dc="http://purl.org/dc/elements/1.1/"
   xmlns:cc="http://creativecommons.org/ns#"
   xmlns:rdf="http://www.w3.org/1999/02/22-rdf-syntax-ns#"
   xmlns:svg="http://www.w3.org/2000/svg"
   xmlns="http://www.w3.org/2000/svg"
   xmlns:xlink="http://www.w3.org/1999/xlink"
   xmlns:sodipodi="http://sodipodi.sourceforge.net/DTD/sodipodi-0.dtd"
   xmlns:inkscape="http://www.inkscape.org/namespaces/inkscape"
   width="210mm"
   height="297mm"
   viewBox="0 0 210 297"
   version="1.1"
   id="svg8"
   inkscape:version="1.0 (4035a4fb49, 2020-05-01)"
   sodipodi:docname="sketch09.svg">
  <defs
     id="defs2">
    <linearGradient
       gradientTransform="translate(59.266665,317.75949)"
       osb:paint="solid"
       id="linearGradient940">
      <stop
         id="stop938"
         offset="0"
         style="stop-color:#129d2a;stop-opacity:1;" />
    </linearGradient>
    <linearGradient
       gradientTransform="translate(59.266665,317.75949)"
       osb:paint="solid"
       id="linearGradient934">
      <stop
         id="stop932"
         offset="0"
         style="stop-color:#1b3ead;stop-opacity:1;" />
    </linearGradient>
    <linearGradient
       gradientTransform="translate(-59.266667,211.66667)"
       osb:paint="solid"
       id="linearGradient916">
      <stop
         id="stop914"
         offset="0"
         style="stop-color:#b40f01;stop-opacity:1;" />
    </linearGradient>
    <g
       id="g4616">
      <symbol
         id="symbol2022"
         overflow="visible">
        <path
           id="path3125"
           d=""
           style="stroke:none;" />
      </symbol>
      <symbol
         id="symbol3837"
         overflow="visible">
        <path
           id="path7296"
           d="M 2.375 -6.8125 C 2.375 -6.8125 2.375 -6.921875 2.25 -6.921875 C 2.03125 -6.921875 1.296875 -6.84375 1.03125 -6.8125 C 0.953125 -6.8125 0.84375 -6.796875 0.84375 -6.625 C 0.84375 -6.5 0.9375 -6.5 1.09375 -6.5 C 1.5625 -6.5 1.578125 -6.4375 1.578125 -6.328125 C 1.578125 -6.265625 1.5 -5.921875 1.453125 -5.71875 L 0.625 -2.46875 C 0.515625 -1.96875 0.46875 -1.796875 0.46875 -1.453125 C 0.46875 -0.515625 1 0.109375 1.734375 0.109375 C 2.90625 0.109375 4.140625 -1.375 4.140625 -2.8125 C 4.140625 -3.71875 3.609375 -4.40625 2.8125 -4.40625 C 2.359375 -4.40625 1.9375 -4.109375 1.640625 -3.8125 Z M 1.453125 -3.046875 C 1.5 -3.265625 1.5 -3.28125 1.59375 -3.390625 C 2.078125 -4.03125 2.53125 -4.1875 2.796875 -4.1875 C 3.15625 -4.1875 3.421875 -3.890625 3.421875 -3.25 C 3.421875 -2.65625 3.09375 -1.515625 2.90625 -1.140625 C 2.578125 -0.46875 2.125 -0.109375 1.734375 -0.109375 C 1.390625 -0.109375 1.0625 -0.375 1.0625 -1.109375 C 1.0625 -1.3125 1.0625 -1.5 1.21875 -2.125 Z M 1.453125 -3.046875 "
           style="stroke:none;" />
      </symbol>
    </g>
    <g
       id="g612">
      <symbol
         id="symbol3840"
         overflow="visible">
        <path
           id="path9866"
           d=""
           style="stroke:none;" />
      </symbol>
      <symbol
         id="symbol8597"
         overflow="visible">
        <path
           id="path1835"
           d="M 2.296875 -3.5 C 2.359375 -3.703125 2.453125 -4.09375 2.453125 -4.140625 C 2.453125 -4.3125 2.328125 -4.40625 2.15625 -4.40625 C 2.140625 -4.40625 1.859375 -4.390625 1.765625 -4.046875 L 0.328125 1.71875 C 0.296875 1.84375 0.296875 1.859375 0.296875 1.890625 C 0.296875 2.03125 0.40625 2.15625 0.578125 2.15625 C 0.78125 2.15625 0.90625 1.96875 0.921875 1.9375 C 0.96875 1.859375 1.09375 1.328125 1.46875 -0.203125 C 1.796875 0.0625 2.25 0.109375 2.4375 0.109375 C 3.140625 0.109375 3.53125 -0.34375 3.765625 -0.625 C 3.859375 -0.171875 4.234375 0.109375 4.671875 0.109375 C 5.015625 0.109375 5.25 -0.125 5.40625 -0.4375 C 5.578125 -0.796875 5.703125 -1.40625 5.703125 -1.421875 C 5.703125 -1.53125 5.609375 -1.53125 5.578125 -1.53125 C 5.484375 -1.53125 5.46875 -1.484375 5.4375 -1.34375 C 5.28125 -0.703125 5.09375 -0.109375 4.6875 -0.109375 C 4.421875 -0.109375 4.390625 -0.375 4.390625 -0.5625 C 4.390625 -0.78125 4.5 -1.25 4.578125 -1.609375 L 4.859375 -2.6875 C 4.890625 -2.828125 5 -3.203125 5.03125 -3.359375 C 5.078125 -3.59375 5.1875 -3.96875 5.1875 -4.03125 C 5.1875 -4.203125 5.046875 -4.296875 4.890625 -4.296875 C 4.84375 -4.296875 4.578125 -4.28125 4.5 -3.953125 L 4.03125 -2.078125 C 3.921875 -1.578125 3.8125 -1.171875 3.78125 -1.0625 C 3.765625 -1.015625 3.296875 -0.109375 2.484375 -0.109375 C 1.984375 -0.109375 1.75 -0.4375 1.75 -0.984375 C 1.75 -1.265625 1.8125 -1.546875 1.890625 -1.828125 Z M 2.296875 -3.5 "
           style="stroke:none;" />
      </symbol>
    </g>
    <g
       id="g1506">
      <symbol
         id="symbol3429"
         overflow="visible">
        <path
           id="path6815"
           d=""
           style="stroke:none;" />
      </symbol>
      <symbol
         id="symbol8803"
         overflow="visible">
        <path
           id="path4865"
           d="M 6.84375 -3.265625 C 7 -3.265625 7.1875 -3.265625 7.1875 -3.453125 C 7.1875 -3.65625 7 -3.65625 6.859375 -3.65625 L 0.890625 -3.65625 C 0.75 -3.65625 0.5625 -3.65625 0.5625 -3.453125 C 0.5625 -3.265625 0.75 -3.265625 0.890625 -3.265625 Z M 6.859375 -1.328125 C 7 -1.328125 7.1875 -1.328125 7.1875 -1.53125 C 7.1875 -1.71875 7 -1.71875 6.84375 -1.71875 L 0.890625 -1.71875 C 0.75 -1.71875 0.5625 -1.71875 0.5625 -1.53125 C 0.5625 -1.328125 0.75 -1.328125 0.890625 -1.328125 Z M 6.859375 -1.328125 "
           style="stroke:none;" />
      </symbol>
    </g>
    <g
       id="g2364">
      <symbol
         id="symbol5353"
         overflow="visible">
        <path
           id="path9276"
           d=""
           style="stroke:none;" />
      </symbol>
      <symbol
         id="symbol4788"
         overflow="visible">
        <path
           id="path7386"
           d="M 4.078125 -2.296875 L 6.859375 -2.296875 C 7 -2.296875 7.1875 -2.296875 7.1875 -2.5 C 7.1875 -2.6875 7 -2.6875 6.859375 -2.6875 L 4.078125 -2.6875 L 4.078125 -5.484375 C 4.078125 -5.625 4.078125 -5.8125 3.875 -5.8125 C 3.671875 -5.8125 3.671875 -5.625 3.671875 -5.484375 L 3.671875 -2.6875 L 0.890625 -2.6875 C 0.75 -2.6875 0.5625 -2.6875 0.5625 -2.5 C 0.5625 -2.296875 0.75 -2.296875 0.890625 -2.296875 L 3.671875 -2.296875 L 3.671875 0.5 C 3.671875 0.640625 3.671875 0.828125 3.875 0.828125 C 4.078125 0.828125 4.078125 0.640625 4.078125 0.5 Z M 4.078125 -2.296875 "
           style="stroke:none;" />
      </symbol>
    </g>
    <g
       id="g3270">
      <symbol
         overflow="visible"
         id="symbol6059">
        <path
           style="stroke:none;"
           d=""
           id="path710" />
      </symbol>
      <symbol
         overflow="visible"
         id="symbol3045">
        <path
           style="stroke:none;"
           d="M 4.421875 -2.5 C 4.421875 -3.5625 3.53125 -4.421875 2.5 -4.421875 C 1.421875 -4.421875 0.546875 -3.53125 0.546875 -2.5 C 0.546875 -1.4375 1.421875 -0.5625 2.5 -0.5625 C 3.53125 -0.5625 4.421875 -1.421875 4.421875 -2.5 Z M 2.5 -0.953125 C 1.625 -0.953125 0.953125 -1.65625 0.953125 -2.5 C 0.953125 -3.328125 1.640625 -4.03125 2.5 -4.03125 C 3.3125 -4.03125 4.03125 -3.34375 4.03125 -2.5 C 4.03125 -1.640625 3.3125 -0.953125 2.5 -0.953125 Z M 2.5 -0.953125 "
           id="path4505" />
      </symbol>
      <symbol
         overflow="visible"
         id="symbol408">
        <path
           style="stroke:none;"
           d=""
           id="path8832" />
      </symbol>
      <symbol
         overflow="visible"
         id="symbol7425">
        <path
           style="stroke:none;"
           d="M 3.515625 -1.265625 L 3.28125 -1.265625 C 3.265625 -1.109375 3.1875 -0.703125 3.09375 -0.640625 C 3.046875 -0.59375 2.515625 -0.59375 2.40625 -0.59375 L 1.125 -0.59375 C 1.859375 -1.234375 2.109375 -1.4375 2.515625 -1.765625 C 3.03125 -2.171875 3.515625 -2.609375 3.515625 -3.265625 C 3.515625 -4.109375 2.78125 -4.625 1.890625 -4.625 C 1.03125 -4.625 0.4375 -4.015625 0.4375 -3.375 C 0.4375 -3.03125 0.734375 -2.984375 0.8125 -2.984375 C 0.96875 -2.984375 1.171875 -3.109375 1.171875 -3.359375 C 1.171875 -3.484375 1.125 -3.734375 0.765625 -3.734375 C 0.984375 -4.21875 1.453125 -4.375 1.78125 -4.375 C 2.484375 -4.375 2.84375 -3.828125 2.84375 -3.265625 C 2.84375 -2.65625 2.40625 -2.1875 2.1875 -1.9375 L 0.515625 -0.265625 C 0.4375 -0.203125 0.4375 -0.1875 0.4375 0 L 3.3125 0 Z M 3.515625 -1.265625 "
           id="path857" />
      </symbol>
    </g>
    <linearGradient
       gradientTransform="matrix(0.39867424,0,0,0.43750002,6.8070089,-3.7041665)"
       gradientUnits="userSpaceOnUse"
       y2="76.199998"
       x2="110.19917"
       y1="76.199998"
       x1="25.2675"
       id="linearGradient918"
       xlink:href="#linearGradient916"
       inkscape:collect="always" />
  </defs>
  <sodipodi:namedview
     id="base"
     pagecolor="#ffffff"
     bordercolor="#666666"
     borderopacity="1.0"
     inkscape:pageopacity="0.0"
     inkscape:pageshadow="2"
     inkscape:zoom="0.70710678"
     inkscape:cx="299.25882"
     inkscape:cy="534.46811"
     inkscape:document-units="mm"
     inkscape:current-layer="layer1"
     inkscape:document-rotation="0"
     showgrid="true"
     guidetolerance="8.9"
     gridtolerance="7.6"
     objecttolerance="9.6"
     inkscape:window-width="1375"
     inkscape:window-height="1040"
     inkscape:window-x="78"
     inkscape:window-y="0"
     inkscape:window-maximized="0">
    <inkscape:grid
       type="xygrid"
       id="grid833"
       spacingx="8.4666667"
       spacingy="8.4666667" />
  </sodipodi:namedview>
  <metadata
     id="metadata5">
    <rdf:RDF>
      <cc:Work
         rdf:about="">
        <dc:format>image/svg+xml</dc:format>
        <dc:type
           rdf:resource="http://purl.org/dc/dcmitype/StillImage" />
        <dc:title />
      </cc:Work>
    </rdf:RDF>
  </metadata>
  <g
     inkscape:label="Layer 1"
     inkscape:groupmode="layer"
     id="layer1">
    <text
       id="text850"
       y="14.604471"
       x="46.188515"
       style="font-style:normal;font-weight:normal;font-size:10.5833px;line-height:1.25;font-family:sans-serif;fill:#000000;fill-opacity:1;stroke:none;stroke-width:0.264583"
       xml:space="preserve"><tspan
         id="tspan852"
         style="font-style:normal;font-variant:normal;font-weight:normal;font-stretch:normal;font-family:'CMU Serif';-inkscape-font-specification:'CMU Serif';stroke-width:0.264583"
         y="14.604471"
         x="46.188515"
         sodipodi:role="line" /></text>
    <text
       id="text3947"
       y="33.866665"
       x="57.263393"
       style="font-style:normal;font-weight:normal;font-size:10.5833px;line-height:1.25;font-family:sans-serif;fill:#000000;fill-opacity:1;stroke:none;stroke-width:0.264583"
       xml:space="preserve"><tspan
         style="stroke-width:0.264583"
         y="33.866665"
         x="57.263393"
         id="tspan3945"
         sodipodi:role="line" /></text>
    <circle
       transform="matrix(1,0,-0.71843171,0.6955975,0,0)"
       ry="23.822952"
       rx="42.389423"
       cy="39.649445"
       cx="88.886169"
       id="path4918"
       style="opacity:1;fill:none;fill-opacity:1;stroke:#000000;stroke-width:0.225198;stroke-linecap:round;stroke-linejoin:round;stroke-miterlimit:4;stroke-dasharray:none;stroke-opacity:1;paint-order:normal" />
    <text
       xml:space="preserve"
       style="font-style:normal;font-weight:normal;font-size:10.5833px;line-height:1.25;font-family:sans-serif;fill:#000000;fill-opacity:1;stroke:none;stroke-width:0.264583"
       x="101.6"
       y="42.333332"
       id="text6156"><tspan
         sodipodi:role="line"
         id="tspan6154"
         x="101.6"
         y="42.333332"
         style="stroke-width:0.264583" /></text>
    <circle
       style="opacity:1;fill:none;fill-opacity:1;stroke:#000000;stroke-width:0.225198;stroke-linecap:round;stroke-linejoin:round;stroke-miterlimit:4;stroke-dasharray:none;stroke-opacity:1;paint-order:normal"
       id="circle10071"
       cx="88.886169"
       cy="39.649445"
       rx="42.389423"
       ry="23.822952"
       transform="matrix(1,0,-0.71843171,0.6955975,0,0)" />
    <circle
       style="opacity:1;fill:none;fill-opacity:1;stroke:#000000;stroke-width:0.225198;stroke-linecap:round;stroke-linejoin:round;stroke-miterlimit:4;stroke-dasharray:none;stroke-opacity:1;paint-order:normal"
       id="circle10073"
       cx="88.886169"
       cy="39.649445"
       rx="42.389423"
       ry="23.822952"
       transform="matrix(1,0,-0.71843171,0.6955975,0,0)" />
    <circle
       style="opacity:1;fill:none;fill-opacity:1;stroke:#000000;stroke-width:0.225198;stroke-linecap:round;stroke-linejoin:round;stroke-miterlimit:4;stroke-dasharray:none;stroke-opacity:1;paint-order:normal"
       id="circle10075"
       cx="88.886169"
       cy="39.649445"
       rx="42.389423"
       ry="23.822952"
       transform="matrix(1,0,-0.71843171,0.6955975,0,0)" />
    <circle
       style="opacity:1;fill:none;fill-opacity:1;stroke:#000000;stroke-width:0.225198;stroke-linecap:round;stroke-linejoin:round;stroke-miterlimit:4;stroke-dasharray:none;stroke-opacity:1;paint-order:normal"
       id="circle10077"
       cx="88.886169"
       cy="39.649445"
       rx="42.389423"
       ry="23.822952"
       transform="matrix(1,0,-0.71843171,0.6955975,0,0)" />
    <path
       sodipodi:nodetypes="cc"
       id="path904"
       d="M 8.4666667,0 H 59.266667"
       style="fill:none;stroke:#000000;stroke-width:0.359487;stroke-linecap:butt;stroke-linejoin:miter;stroke-miterlimit:4;stroke-dasharray:none;stroke-opacity:1" />
    <path
       sodipodi:nodetypes="cc"
       id="path906"
       d="M 59.266667,59.266667 H 8.4666667"
       style="fill:none;stroke:#000000;stroke-width:0.359486;stroke-linecap:butt;stroke-linejoin:miter;stroke-miterlimit:4;stroke-dasharray:none;stroke-opacity:1" />
    <path
       sodipodi:nodetypes="cccccccccc"
       id="path908"
       d="m 16.933333,0 v 11.1125 l 6.817534,2.99259 m 3.317856,1.456388 13.464316,5.910228 m 3.356434,1.473324 6.79828,2.984137 v 7.408334 l -33.75442,14.816666 v 11.1125"
       style="fill:none;stroke:url(#linearGradient918);stroke-width:0.334109;stroke-linecap:butt;stroke-linejoin:miter;stroke-miterlimit:4;stroke-dasharray:none;stroke-opacity:1" />
    <path
       sodipodi:nodetypes="cccccccc"
       id="path910"
       d="m 33.810543,0 v 11.1125 l -16.87721,7.408334 v 22.225001 l 6.726521,2.952639 m 3.446453,1.512836 6.704236,2.942857 v 11.1125"
       style="fill:none;stroke:url(#linearGradient940);stroke-width:0.334109;stroke-linecap:butt;stroke-linejoin:miter;stroke-miterlimit:4;stroke-dasharray:none;stroke-opacity:1" />
    <path
       sodipodi:nodetypes="ccccccccc"
       id="path912"
       d="m 50.687753,0 v 11.1125 7.408334 l -16.87721,7.408333 v 7.408334 l 6.824878,2.995814 m 3.433594,1.507192 6.618738,2.905328 v 18.520832"
       style="fill:none;stroke:url(#linearGradient934);stroke-width:0.334109;stroke-linecap:butt;stroke-linejoin:miter;stroke-miterlimit:4;stroke-dasharray:none;stroke-opacity:1" />
    <path
       style="fill:none;stroke:#000000;stroke-width:0.33282;stroke-linecap:butt;stroke-linejoin:miter;stroke-miterlimit:4;stroke-dasharray:none;stroke-opacity:1"
       d="M 67.733334,0 H 118.53333"
       id="path920"
       sodipodi:nodetypes="cc" />
    <path
       style="fill:none;stroke:#000000;stroke-width:0.33282;stroke-linecap:butt;stroke-linejoin:miter;stroke-miterlimit:4;stroke-dasharray:none;stroke-opacity:1"
       d="M 118.53333,59.266667 H 67.733334"
       id="path922"
       sodipodi:nodetypes="cc" />
    <path
       sodipodi:nodetypes="cccccccccc"
       id="path944"
       d="m 93.133332,0 v 11.443229 m 0,2.38125 v 2.116667 m 0,2.050521 v 23.261385 m 0,2.151519 v 2.15152 m 0,1.870887 v 11.839688"
       style="fill:none;stroke:url(#linearGradient940);stroke-width:0.264583px;stroke-linecap:butt;stroke-linejoin:miter;stroke-opacity:1" />
    <path
       sodipodi:nodetypes="cccccccc"
       id="path946"
       d="m 76.199999,0 v 8.4666666 l 21.415687,5.3539214 m 2.178922,0.54473 10.272062,2.568015 V 42.333334 L 76.2,50.8 v 8.466667"
       style="fill:none;stroke:url(#linearGradient916);stroke-width:0.264583px;stroke-linecap:butt;stroke-linejoin:miter;stroke-opacity:1" />
    <path
       sodipodi:nodetypes="cccccccc"
       id="path948"
       d="M 110.06667,0 V 8.4666666 L 76.199999,25.4 76.2,33.866667 97.578334,44.555833 M 99.668542,45.600937 110.06667,50.8 v 8.466667"
       style="fill:none;stroke:url(#linearGradient934);stroke-width:0.264583px;stroke-linecap:butt;stroke-linejoin:miter;stroke-opacity:1" />
    <path
       sodipodi:nodetypes="cc"
       id="path950"
       d="m 127,0 h 50.8"
       style="fill:none;stroke:#000000;stroke-width:0.33282;stroke-linecap:butt;stroke-linejoin:miter;stroke-miterlimit:4;stroke-dasharray:none;stroke-opacity:1" />
    <path
       sodipodi:nodetypes="cc"
       id="path952"
       d="M 177.8,59.266667 H 127"
       style="fill:none;stroke:#000000;stroke-width:0.33282;stroke-linecap:butt;stroke-linejoin:miter;stroke-miterlimit:4;stroke-dasharray:none;stroke-opacity:1" />
    <path
       sodipodi:nodetypes="cccccccc"
       id="path954"
       d="M 135.46666,0 V 12.722029 L 152.4,21.141019 V 37.979 l -7.9201,4.025253 m -2.2376,1.137221 -6.77564,3.443604 v 12.681588"
       style="fill:none;stroke:url(#linearGradient916);stroke-width:0.264583px;stroke-linecap:butt;stroke-linejoin:miter;stroke-opacity:1" />
    <path
       sodipodi:nodetypes="cccccccc"
       id="path956"
       d="m 152.4,0 v 12.909118 l -7.0231,3.56937 m -2.20104,1.118641 -7.7092,3.918068 V 38.540266 L 152.4,47.146344 v 12.120322"
       style="fill:none;stroke:url(#linearGradient940);stroke-width:0.264583px;stroke-linecap:butt;stroke-linejoin:miter;stroke-opacity:1" />
    <path
       id="path958"
       d="M 169.33333,59.266666 V 0"
       style="fill:none;stroke:url(#linearGradient934);stroke-width:0.264583px;stroke-linecap:butt;stroke-linejoin:miter;stroke-opacity:1" />
  </g>
</svg>
