<?xml version="1.0" encoding="UTF-8" standalone="no"?>
<svg
   xmlns:dc="http://purl.org/dc/elements/1.1/"
   xmlns:cc="http://creativecommons.org/ns#"
   xmlns:rdf="http://www.w3.org/1999/02/22-rdf-syntax-ns#"
   xmlns:svg="http://www.w3.org/2000/svg"
   xmlns="http://www.w3.org/2000/svg"
   xmlns:xlink="http://www.w3.org/1999/xlink"
   xmlns:sodipodi="http://sodipodi.sourceforge.net/DTD/sodipodi-0.dtd"
   xmlns:inkscape="http://www.inkscape.org/namespaces/inkscape"
   width="210mm"
   height="297mm"
   viewBox="0 0 210 297"
   version="1.1"
   id="svg8"
   inkscape:version="1.0 (4035a4fb49, 2020-05-01)"
   sodipodi:docname="sketch02.svg">
  <defs
     id="defs2">
    <g
       id="g2341">
      <symbol
         id="symbol5800"
         overflow="visible">
        <path
           id="path9407"
           d=""
           style="stroke:none;" />
      </symbol>
      <symbol
         id="symbol724"
         overflow="visible">
        <path
           id="path1161"
           d="M 2.828125 -6.234375 C 2.828125 -6.4375 2.6875 -6.59375 2.46875 -6.59375 C 2.1875 -6.59375 1.921875 -6.328125 1.921875 -6.0625 C 1.921875 -5.875 2.0625 -5.703125 2.296875 -5.703125 C 2.53125 -5.703125 2.828125 -5.9375 2.828125 -6.234375 Z M 2.078125 -2.484375 C 2.1875 -2.765625 2.1875 -2.796875 2.296875 -3.0625 C 2.375 -3.265625 2.421875 -3.40625 2.421875 -3.59375 C 2.421875 -4.03125 2.109375 -4.40625 1.609375 -4.40625 C 0.671875 -4.40625 0.296875 -2.953125 0.296875 -2.875 C 0.296875 -2.765625 0.390625 -2.765625 0.40625 -2.765625 C 0.515625 -2.765625 0.515625 -2.796875 0.5625 -2.953125 C 0.84375 -3.890625 1.234375 -4.1875 1.578125 -4.1875 C 1.65625 -4.1875 1.828125 -4.1875 1.828125 -3.875 C 1.828125 -3.65625 1.75 -3.453125 1.71875 -3.34375 C 1.640625 -3.09375 1.1875 -1.9375 1.03125 -1.5 C 0.921875 -1.25 0.796875 -0.921875 0.796875 -0.703125 C 0.796875 -0.234375 1.140625 0.109375 1.609375 0.109375 C 2.546875 0.109375 2.921875 -1.328125 2.921875 -1.421875 C 2.921875 -1.53125 2.828125 -1.53125 2.796875 -1.53125 C 2.703125 -1.53125 2.703125 -1.5 2.65625 -1.34375 C 2.46875 -0.71875 2.140625 -0.109375 1.640625 -0.109375 C 1.46875 -0.109375 1.390625 -0.203125 1.390625 -0.4375 C 1.390625 -0.6875 1.453125 -0.828125 1.6875 -1.4375 Z M 2.078125 -2.484375 "
           style="stroke:none;" />
      </symbol>
      <symbol
         id="symbol1072"
         overflow="visible">
        <path
           id="path2882"
           d=""
           style="stroke:none;" />
      </symbol>
      <symbol
         id="symbol7180"
         overflow="visible">
        <path
           id="path9703"
           d="M 2.328125 -4.4375 C 2.328125 -4.625 2.328125 -4.625 2.125 -4.625 C 1.671875 -4.1875 1.046875 -4.1875 0.765625 -4.1875 L 0.765625 -3.9375 C 0.921875 -3.9375 1.390625 -3.9375 1.765625 -4.125 L 1.765625 -0.578125 C 1.765625 -0.34375 1.765625 -0.25 1.078125 -0.25 L 0.8125 -0.25 L 0.8125 0 C 0.9375 0 1.796875 -0.03125 2.046875 -0.03125 C 2.265625 -0.03125 3.140625 0 3.296875 0 L 3.296875 -0.25 L 3.03125 -0.25 C 2.328125 -0.25 2.328125 -0.34375 2.328125 -0.578125 Z M 2.328125 -4.4375 "
           style="stroke:none;" />
      </symbol>
      <symbol
         id="symbol8829"
         overflow="visible">
        <path
           id="path7545"
           d=""
           style="stroke:none;" />
      </symbol>
      <symbol
         id="symbol6812"
         overflow="visible">
        <path
           id="path4999"
           d="M 4.078125 -2.296875 L 6.859375 -2.296875 C 7 -2.296875 7.1875 -2.296875 7.1875 -2.5 C 7.1875 -2.6875 7 -2.6875 6.859375 -2.6875 L 4.078125 -2.6875 L 4.078125 -5.484375 C 4.078125 -5.625 4.078125 -5.8125 3.875 -5.8125 C 3.671875 -5.8125 3.671875 -5.625 3.671875 -5.484375 L 3.671875 -2.6875 L 0.890625 -2.6875 C 0.75 -2.6875 0.5625 -2.6875 0.5625 -2.5 C 0.5625 -2.296875 0.75 -2.296875 0.890625 -2.296875 L 3.671875 -2.296875 L 3.671875 0.5 C 3.671875 0.640625 3.671875 0.828125 3.875 0.828125 C 4.078125 0.828125 4.078125 0.640625 4.078125 0.5 Z M 4.078125 -2.296875 "
           style="stroke:none;" />
      </symbol>
      <symbol
         id="symbol3535"
         overflow="visible">
        <path
           id="path6876"
           d=""
           style="stroke:none;" />
      </symbol>
      <symbol
         id="symbol4539"
         overflow="visible">
        <path
           id="path9988"
           d="M 1.90625 -2.5 C 1.90625 -2.78125 1.671875 -3.015625 1.390625 -3.015625 C 1.09375 -3.015625 0.859375 -2.78125 0.859375 -2.5 C 0.859375 -2.203125 1.09375 -1.96875 1.390625 -1.96875 C 1.671875 -1.96875 1.90625 -2.203125 1.90625 -2.5 Z M 1.90625 -2.5 "
           style="stroke:none;" />
      </symbol>
      <symbol
         id="symbol1376"
         overflow="visible">
        <path
           id="path37"
           d=""
           style="stroke:none;" />
      </symbol>
      <symbol
         id="symbol9439"
         overflow="visible">
        <path
           id="path7431"
           d="M 2.1875 -4.625 C 2.1875 -4.640625 2.203125 -4.734375 2.203125 -4.734375 C 2.203125 -4.78125 2.1875 -4.84375 2.09375 -4.84375 C 1.953125 -4.84375 1.375 -4.78125 1.203125 -4.765625 C 1.15625 -4.765625 1.046875 -4.75 1.046875 -4.609375 C 1.046875 -4.515625 1.15625 -4.515625 1.234375 -4.515625 C 1.5625 -4.515625 1.5625 -4.453125 1.5625 -4.40625 C 1.5625 -4.359375 1.546875 -4.3125 1.546875 -4.25 L 0.5625 -0.3125 C 0.515625 -0.1875 0.515625 -0.171875 0.515625 -0.15625 C 0.515625 -0.046875 0.609375 0.0625 0.765625 0.0625 C 0.953125 0.0625 1.03125 -0.0625 1.078125 -0.21875 C 1.09375 -0.25 1.390625 -1.484375 1.421875 -1.578125 C 1.921875 -1.53125 2.3125 -1.359375 2.3125 -1 C 2.3125 -0.96875 2.3125 -0.9375 2.296875 -0.859375 C 2.265625 -0.765625 2.265625 -0.71875 2.265625 -0.640625 C 2.265625 -0.15625 2.671875 0.0625 3.015625 0.0625 C 3.6875 0.0625 3.890625 -0.984375 3.890625 -1 C 3.890625 -1.09375 3.8125 -1.09375 3.78125 -1.09375 C 3.6875 -1.09375 3.671875 -1.046875 3.640625 -0.921875 C 3.5625 -0.625 3.375 -0.125 3.03125 -0.125 C 2.84375 -0.125 2.78125 -0.296875 2.78125 -0.484375 C 2.78125 -0.609375 2.78125 -0.625 2.828125 -0.796875 C 2.84375 -0.828125 2.859375 -0.9375 2.859375 -1.015625 C 2.859375 -1.640625 2.03125 -1.734375 1.734375 -1.75 C 1.9375 -1.875 2.1875 -2.109375 2.3125 -2.21875 C 2.671875 -2.546875 3.015625 -2.875 3.40625 -2.875 C 3.484375 -2.875 3.578125 -2.859375 3.640625 -2.78125 C 3.34375 -2.734375 3.28125 -2.5 3.28125 -2.390625 C 3.28125 -2.25 3.390625 -2.140625 3.546875 -2.140625 C 3.75 -2.140625 3.953125 -2.296875 3.953125 -2.578125 C 3.953125 -2.8125 3.78125 -3.078125 3.421875 -3.078125 C 3.015625 -3.078125 2.65625 -2.78125 2.296875 -2.453125 C 2 -2.1875 1.78125 -1.96875 1.484375 -1.84375 Z M 2.1875 -4.625 "
           style="stroke:none;" />
      </symbol>
    </g>
    <g
       id="g2279">
      <symbol
         id="symbol3668"
         overflow="visible">
        <path
           id="path2738"
           d=""
           style="stroke:none;" />
      </symbol>
      <symbol
         id="symbol3161"
         overflow="visible">
        <path
           id="path3521"
           d="M 2.828125 -6.234375 C 2.828125 -6.4375 2.6875 -6.59375 2.46875 -6.59375 C 2.1875 -6.59375 1.921875 -6.328125 1.921875 -6.0625 C 1.921875 -5.875 2.0625 -5.703125 2.296875 -5.703125 C 2.53125 -5.703125 2.828125 -5.9375 2.828125 -6.234375 Z M 2.078125 -2.484375 C 2.1875 -2.765625 2.1875 -2.796875 2.296875 -3.0625 C 2.375 -3.265625 2.421875 -3.40625 2.421875 -3.59375 C 2.421875 -4.03125 2.109375 -4.40625 1.609375 -4.40625 C 0.671875 -4.40625 0.296875 -2.953125 0.296875 -2.875 C 0.296875 -2.765625 0.390625 -2.765625 0.40625 -2.765625 C 0.515625 -2.765625 0.515625 -2.796875 0.5625 -2.953125 C 0.84375 -3.890625 1.234375 -4.1875 1.578125 -4.1875 C 1.65625 -4.1875 1.828125 -4.1875 1.828125 -3.875 C 1.828125 -3.65625 1.75 -3.453125 1.71875 -3.34375 C 1.640625 -3.09375 1.1875 -1.9375 1.03125 -1.5 C 0.921875 -1.25 0.796875 -0.921875 0.796875 -0.703125 C 0.796875 -0.234375 1.140625 0.109375 1.609375 0.109375 C 2.546875 0.109375 2.921875 -1.328125 2.921875 -1.421875 C 2.921875 -1.53125 2.828125 -1.53125 2.796875 -1.53125 C 2.703125 -1.53125 2.703125 -1.5 2.65625 -1.34375 C 2.46875 -0.71875 2.140625 -0.109375 1.640625 -0.109375 C 1.46875 -0.109375 1.390625 -0.203125 1.390625 -0.4375 C 1.390625 -0.6875 1.453125 -0.828125 1.6875 -1.4375 Z M 2.078125 -2.484375 "
           style="stroke:none;" />
      </symbol>
      <symbol
         id="symbol977"
         overflow="visible">
        <path
           id="path3794"
           d=""
           style="stroke:none;" />
      </symbol>
      <symbol
         id="symbol3370"
         overflow="visible">
        <path
           id="path1351"
           d="M 2.328125 -4.4375 C 2.328125 -4.625 2.328125 -4.625 2.125 -4.625 C 1.671875 -4.1875 1.046875 -4.1875 0.765625 -4.1875 L 0.765625 -3.9375 C 0.921875 -3.9375 1.390625 -3.9375 1.765625 -4.125 L 1.765625 -0.578125 C 1.765625 -0.34375 1.765625 -0.25 1.078125 -0.25 L 0.8125 -0.25 L 0.8125 0 C 0.9375 0 1.796875 -0.03125 2.046875 -0.03125 C 2.265625 -0.03125 3.140625 0 3.296875 0 L 3.296875 -0.25 L 3.03125 -0.25 C 2.328125 -0.25 2.328125 -0.34375 2.328125 -0.578125 Z M 2.328125 -4.4375 "
           style="stroke:none;" />
      </symbol>
    </g>
    <g
       id="g1916">
      <symbol
         id="symbol6612"
         overflow="visible">
        <path
           id="path1939"
           d=""
           style="stroke:none;" />
      </symbol>
      <symbol
         id="symbol8287"
         overflow="visible">
        <path
           id="path3662"
           d="M 2.828125 -6.234375 C 2.828125 -6.4375 2.6875 -6.59375 2.46875 -6.59375 C 2.1875 -6.59375 1.921875 -6.328125 1.921875 -6.0625 C 1.921875 -5.875 2.0625 -5.703125 2.296875 -5.703125 C 2.53125 -5.703125 2.828125 -5.9375 2.828125 -6.234375 Z M 2.078125 -2.484375 C 2.1875 -2.765625 2.1875 -2.796875 2.296875 -3.0625 C 2.375 -3.265625 2.421875 -3.40625 2.421875 -3.59375 C 2.421875 -4.03125 2.109375 -4.40625 1.609375 -4.40625 C 0.671875 -4.40625 0.296875 -2.953125 0.296875 -2.875 C 0.296875 -2.765625 0.390625 -2.765625 0.40625 -2.765625 C 0.515625 -2.765625 0.515625 -2.796875 0.5625 -2.953125 C 0.84375 -3.890625 1.234375 -4.1875 1.578125 -4.1875 C 1.65625 -4.1875 1.828125 -4.1875 1.828125 -3.875 C 1.828125 -3.65625 1.75 -3.453125 1.71875 -3.34375 C 1.640625 -3.09375 1.1875 -1.9375 1.03125 -1.5 C 0.921875 -1.25 0.796875 -0.921875 0.796875 -0.703125 C 0.796875 -0.234375 1.140625 0.109375 1.609375 0.109375 C 2.546875 0.109375 2.921875 -1.328125 2.921875 -1.421875 C 2.921875 -1.53125 2.828125 -1.53125 2.796875 -1.53125 C 2.703125 -1.53125 2.703125 -1.5 2.65625 -1.34375 C 2.46875 -0.71875 2.140625 -0.109375 1.640625 -0.109375 C 1.46875 -0.109375 1.390625 -0.203125 1.390625 -0.4375 C 1.390625 -0.6875 1.453125 -0.828125 1.6875 -1.4375 Z M 2.078125 -2.484375 "
           style="stroke:none;" />
      </symbol>
      <symbol
         id="symbol2360"
         overflow="visible">
        <path
           id="path6662"
           d=""
           style="stroke:none;" />
      </symbol>
      <symbol
         id="symbol3951"
         overflow="visible">
        <path
           id="path4494"
           d="M 2.328125 -4.4375 C 2.328125 -4.625 2.328125 -4.625 2.125 -4.625 C 1.671875 -4.1875 1.046875 -4.1875 0.765625 -4.1875 L 0.765625 -3.9375 C 0.921875 -3.9375 1.390625 -3.9375 1.765625 -4.125 L 1.765625 -0.578125 C 1.765625 -0.34375 1.765625 -0.25 1.078125 -0.25 L 0.8125 -0.25 L 0.8125 0 C 0.9375 0 1.796875 -0.03125 2.046875 -0.03125 C 2.265625 -0.03125 3.140625 0 3.296875 0 L 3.296875 -0.25 L 3.03125 -0.25 C 2.328125 -0.25 2.328125 -0.34375 2.328125 -0.578125 Z M 2.328125 -4.4375 "
           style="stroke:none;" />
      </symbol>
      <symbol
         id="symbol3874"
         overflow="visible">
        <path
           id="path8264"
           d=""
           style="stroke:none;" />
      </symbol>
      <symbol
         id="symbol4161"
         overflow="visible">
        <path
           id="path8713"
           d="M 4.078125 -2.296875 L 6.859375 -2.296875 C 7 -2.296875 7.1875 -2.296875 7.1875 -2.5 C 7.1875 -2.6875 7 -2.6875 6.859375 -2.6875 L 4.078125 -2.6875 L 4.078125 -5.484375 C 4.078125 -5.625 4.078125 -5.8125 3.875 -5.8125 C 3.671875 -5.8125 3.671875 -5.625 3.671875 -5.484375 L 3.671875 -2.6875 L 0.890625 -2.6875 C 0.75 -2.6875 0.5625 -2.6875 0.5625 -2.5 C 0.5625 -2.296875 0.75 -2.296875 0.890625 -2.296875 L 3.671875 -2.296875 L 3.671875 0.5 C 3.671875 0.640625 3.671875 0.828125 3.875 0.828125 C 4.078125 0.828125 4.078125 0.640625 4.078125 0.5 Z M 4.078125 -2.296875 "
           style="stroke:none;" />
      </symbol>
      <symbol
         id="symbol1137"
         overflow="visible">
        <path
           id="path1447"
           d="M 2.9375 -6.375 C 2.9375 -6.625 2.9375 -6.640625 2.703125 -6.640625 C 2.078125 -6 1.203125 -6 0.890625 -6 L 0.890625 -5.6875 C 1.09375 -5.6875 1.671875 -5.6875 2.1875 -5.953125 L 2.1875 -0.78125 C 2.1875 -0.421875 2.15625 -0.3125 1.265625 -0.3125 L 0.953125 -0.3125 L 0.953125 0 C 1.296875 -0.03125 2.15625 -0.03125 2.5625 -0.03125 C 2.953125 -0.03125 3.828125 -0.03125 4.171875 0 L 4.171875 -0.3125 L 3.859375 -0.3125 C 2.953125 -0.3125 2.9375 -0.421875 2.9375 -0.78125 Z M 2.9375 -6.375 "
           style="stroke:none;" />
      </symbol>
    </g>
    <g
       id="g5281">
      <symbol
         id="symbol1274"
         overflow="visible">
        <path
           id="path736"
           d=""
           style="stroke:none;" />
      </symbol>
      <symbol
         id="symbol8947"
         overflow="visible">
        <path
           id="path2774"
           d="M 2.828125 -6.234375 C 2.828125 -6.4375 2.6875 -6.59375 2.46875 -6.59375 C 2.1875 -6.59375 1.921875 -6.328125 1.921875 -6.0625 C 1.921875 -5.875 2.0625 -5.703125 2.296875 -5.703125 C 2.53125 -5.703125 2.828125 -5.9375 2.828125 -6.234375 Z M 2.078125 -2.484375 C 2.1875 -2.765625 2.1875 -2.796875 2.296875 -3.0625 C 2.375 -3.265625 2.421875 -3.40625 2.421875 -3.59375 C 2.421875 -4.03125 2.109375 -4.40625 1.609375 -4.40625 C 0.671875 -4.40625 0.296875 -2.953125 0.296875 -2.875 C 0.296875 -2.765625 0.390625 -2.765625 0.40625 -2.765625 C 0.515625 -2.765625 0.515625 -2.796875 0.5625 -2.953125 C 0.84375 -3.890625 1.234375 -4.1875 1.578125 -4.1875 C 1.65625 -4.1875 1.828125 -4.1875 1.828125 -3.875 C 1.828125 -3.65625 1.75 -3.453125 1.71875 -3.34375 C 1.640625 -3.09375 1.1875 -1.9375 1.03125 -1.5 C 0.921875 -1.25 0.796875 -0.921875 0.796875 -0.703125 C 0.796875 -0.234375 1.140625 0.109375 1.609375 0.109375 C 2.546875 0.109375 2.921875 -1.328125 2.921875 -1.421875 C 2.921875 -1.53125 2.828125 -1.53125 2.796875 -1.53125 C 2.703125 -1.53125 2.703125 -1.5 2.65625 -1.34375 C 2.46875 -0.71875 2.140625 -0.109375 1.640625 -0.109375 C 1.46875 -0.109375 1.390625 -0.203125 1.390625 -0.4375 C 1.390625 -0.6875 1.453125 -0.828125 1.6875 -1.4375 Z M 2.078125 -2.484375 "
           style="stroke:none;" />
      </symbol>
      <symbol
         id="symbol595"
         overflow="visible">
        <path
           id="path4644"
           d=""
           style="stroke:none;" />
      </symbol>
      <symbol
         id="symbol5599"
         overflow="visible">
        <path
           id="path1001"
           d="M 2.328125 -4.4375 C 2.328125 -4.625 2.328125 -4.625 2.125 -4.625 C 1.671875 -4.1875 1.046875 -4.1875 0.765625 -4.1875 L 0.765625 -3.9375 C 0.921875 -3.9375 1.390625 -3.9375 1.765625 -4.125 L 1.765625 -0.578125 C 1.765625 -0.34375 1.765625 -0.25 1.078125 -0.25 L 0.8125 -0.25 L 0.8125 0 C 0.9375 0 1.796875 -0.03125 2.046875 -0.03125 C 2.265625 -0.03125 3.140625 0 3.296875 0 L 3.296875 -0.25 L 3.03125 -0.25 C 2.328125 -0.25 2.328125 -0.34375 2.328125 -0.578125 Z M 2.328125 -4.4375 "
           style="stroke:none;" />
      </symbol>
      <symbol
         id="symbol7081"
         overflow="visible">
        <path
           id="path5671"
           d="M 3.515625 -1.265625 L 3.28125 -1.265625 C 3.265625 -1.109375 3.1875 -0.703125 3.09375 -0.640625 C 3.046875 -0.59375 2.515625 -0.59375 2.40625 -0.59375 L 1.125 -0.59375 C 1.859375 -1.234375 2.109375 -1.4375 2.515625 -1.765625 C 3.03125 -2.171875 3.515625 -2.609375 3.515625 -3.265625 C 3.515625 -4.109375 2.78125 -4.625 1.890625 -4.625 C 1.03125 -4.625 0.4375 -4.015625 0.4375 -3.375 C 0.4375 -3.03125 0.734375 -2.984375 0.8125 -2.984375 C 0.96875 -2.984375 1.171875 -3.109375 1.171875 -3.359375 C 1.171875 -3.484375 1.125 -3.734375 0.765625 -3.734375 C 0.984375 -4.21875 1.453125 -4.375 1.78125 -4.375 C 2.484375 -4.375 2.84375 -3.828125 2.84375 -3.265625 C 2.84375 -2.65625 2.40625 -2.1875 2.1875 -1.9375 L 0.515625 -0.265625 C 0.4375 -0.203125 0.4375 -0.1875 0.4375 0 L 3.3125 0 Z M 3.515625 -1.265625 "
           style="stroke:none;" />
      </symbol>
      <symbol
         id="symbol4813"
         overflow="visible">
        <path
           id="path6448"
           d=""
           style="stroke:none;" />
      </symbol>
      <symbol
         id="symbol9716"
         overflow="visible">
        <path
           id="path5267"
           d="M 4.078125 -2.296875 L 6.859375 -2.296875 C 7 -2.296875 7.1875 -2.296875 7.1875 -2.5 C 7.1875 -2.6875 7 -2.6875 6.859375 -2.6875 L 4.078125 -2.6875 L 4.078125 -5.484375 C 4.078125 -5.625 4.078125 -5.8125 3.875 -5.8125 C 3.671875 -5.8125 3.671875 -5.625 3.671875 -5.484375 L 3.671875 -2.6875 L 0.890625 -2.6875 C 0.75 -2.6875 0.5625 -2.6875 0.5625 -2.5 C 0.5625 -2.296875 0.75 -2.296875 0.890625 -2.296875 L 3.671875 -2.296875 L 3.671875 0.5 C 3.671875 0.640625 3.671875 0.828125 3.875 0.828125 C 4.078125 0.828125 4.078125 0.640625 4.078125 0.5 Z M 4.078125 -2.296875 "
           style="stroke:none;" />
      </symbol>
    </g>
  </defs>
  <sodipodi:namedview
     id="base"
     pagecolor="#ffffff"
     bordercolor="#666666"
     borderopacity="1.0"
     inkscape:pageopacity="0.0"
     inkscape:pageshadow="2"
     inkscape:zoom="1.4"
     inkscape:cx="212.35339"
     inkscape:cy="51.025435"
     inkscape:document-units="mm"
     inkscape:current-layer="layer1"
     inkscape:document-rotation="0"
     showgrid="true"
     guidetolerance="8.9"
     gridtolerance="7.6"
     objecttolerance="9.6"
     inkscape:window-width="1375"
     inkscape:window-height="1040"
     inkscape:window-x="78"
     inkscape:window-y="0"
     inkscape:window-maximized="0">
    <inkscape:grid
       type="xygrid"
       id="grid833"
       spacingx="8.4666667"
       spacingy="8.4666667" />
  </sodipodi:namedview>
  <metadata
     id="metadata5">
    <rdf:RDF>
      <cc:Work
         rdf:about="">
        <dc:format>image/svg+xml</dc:format>
        <dc:type
           rdf:resource="http://purl.org/dc/dcmitype/StillImage" />
        <dc:title />
      </cc:Work>
    </rdf:RDF>
  </metadata>
  <g
     inkscape:label="Layer 1"
     inkscape:groupmode="layer"
     id="layer1">
    <g
       style="stroke-width:1.0589421;stroke-miterlimit:4;stroke-dasharray:none"
       id="g3855"
       transform="matrix(0.28330161,0,0,0.28330161,33.547952,-10.301425)"
       inkscape:label="">
      <g
         style="stroke-width:1.0589421;stroke-miterlimit:4;stroke-dasharray:none"
         id="g4813">
        <g
           style="fill:#000000;fill-opacity:1;stroke-width:1.0589421;stroke-miterlimit:4;stroke-dasharray:none"
           id="g4919">
          <use
             style="stroke-width:1.0589421;stroke-miterlimit:4;stroke-dasharray:none"
             xlink:href="#symbol8947"
             x="91.925003"
             y="81.962997"
             id="use9594"
             width="100%"
             height="100%" />
        </g>
        <g
           style="fill:#000000;fill-opacity:1;stroke-width:1.0589421;stroke-miterlimit:4;stroke-dasharray:none"
           id="g13">
          <use
             style="stroke-width:1.0589421;stroke-miterlimit:4;stroke-dasharray:none"
             xlink:href="#symbol5599"
             x="95.358002"
             y="83.457001"
             id="use232"
             width="100%"
             height="100%" />
        </g>
        <g
           style="fill:#000000;fill-opacity:1;stroke-width:1.0589421;stroke-miterlimit:4;stroke-dasharray:none"
           id="g562">
          <use
             style="stroke-width:1.0589421;stroke-miterlimit:4;stroke-dasharray:none"
             xlink:href="#symbol9716"
             x="102.041"
             y="81.962997"
             id="use4855"
             width="100%"
             height="100%" />
        </g>
        <g
           style="fill:#000000;fill-opacity:1;stroke-width:1.0589421;stroke-miterlimit:4;stroke-dasharray:none"
           id="g2995">
          <use
             style="stroke-width:1.0589421;stroke-miterlimit:4;stroke-dasharray:none"
             xlink:href="#symbol8947"
             x="112.003"
             y="81.962997"
             id="use6984"
             width="100%"
             height="100%" />
        </g>
        <g
           style="fill:#000000;fill-opacity:1;stroke-width:1.0589421;stroke-miterlimit:4;stroke-dasharray:none"
           id="g3312">
          <use
             style="stroke-width:1.0589421;stroke-miterlimit:4;stroke-dasharray:none"
             xlink:href="#symbol7081"
             x="115.436"
             y="83.457001"
             id="use3638"
             width="100%"
             height="100%" />
        </g>
      </g>
    </g>
    <path
       style="fill:none;stroke:#000000;stroke-width:0.3;stroke-linecap:round;stroke-linejoin:round;stroke-miterlimit:4;stroke-dasharray:none;stroke-opacity:1"
       d="m 17.87671,14.224317 8.601833,9.821174 -2.867278,-9.821174"
       id="path835" />
    <path
       style="fill:none;stroke:#000000;stroke-width:0.3;stroke-linecap:round;stroke-linejoin:round;stroke-miterlimit:4;stroke-dasharray:none;stroke-opacity:1"
       d="m 35.080375,14.224317 -8.601832,9.821174 v 9.821176"
       id="path837" />
    <text
       xml:space="preserve"
       style="font-style:normal;font-variant:normal;font-weight:normal;font-stretch:normal;font-size:3.04835px;line-height:1.25;font-family:'CMU Serif';-inkscape-font-specification:'CMU Serif';fill:#000000;fill-opacity:1;stroke:none;stroke-width:0.3;stroke-miterlimit:4;stroke-dasharray:none"
       x="16.16819"
       y="12.898769"
       id="text845"><tspan
         sodipodi:role="line"
         id="tspan843"
         x="16.16819"
         y="12.898769"
         style="font-style:normal;font-variant:normal;font-weight:normal;font-stretch:normal;font-size:3.04836px;font-family:'CMU Serif';-inkscape-font-specification:'CMU Serif';stroke-width:0.3;stroke-miterlimit:4;stroke-dasharray:none">1</tspan></text>
    <text
       id="text846"
       y="12.825834"
       x="22.570946"
       style="font-style:normal;font-variant:normal;font-weight:normal;font-stretch:normal;font-size:3.04836px;line-height:1.25;font-family:'CMU Serif';-inkscape-font-specification:'CMU Serif';fill:#000000;fill-opacity:1;stroke:none;stroke-width:0.3;stroke-miterlimit:4;stroke-dasharray:none"
       xml:space="preserve"><tspan
         style="font-style:normal;font-variant:normal;font-weight:normal;font-stretch:normal;font-size:3.04836px;font-family:'CMU Serif';-inkscape-font-specification:'CMU Serif';stroke-width:0.3;stroke-miterlimit:4;stroke-dasharray:none"
         y="12.825834"
         x="22.570946"
         id="tspan844"
         sodipodi:role="line">2</tspan></text>
    <text
       id="text850"
       y="14.604471"
       x="46.188515"
       style="font-style:normal;font-weight:normal;font-size:10.5833px;line-height:1.25;font-family:sans-serif;fill:#000000;fill-opacity:1;stroke:none;stroke-width:0.264583"
       xml:space="preserve"><tspan
         id="tspan852"
         style="font-style:normal;font-variant:normal;font-weight:normal;font-stretch:normal;font-family:'CMU Serif';-inkscape-font-specification:'CMU Serif';stroke-width:0.264583"
         y="14.604471"
         x="46.188515"
         sodipodi:role="line" /></text>
    <path
       sodipodi:nodetypes="ccc"
       id="path847"
       d="M 26.478543,35.262896 59.400774,47.456315 54.354357,35.262897"
       style="fill:none;stroke:#000000;stroke-width:0.3;stroke-linecap:round;stroke-linejoin:round;stroke-miterlimit:4;stroke-dasharray:none;stroke-opacity:1" />
    <path
       id="path849"
       d="m 92.323004,35.262896 -32.92223,12.193419 1e-6,12.19342"
       style="fill:none;stroke:#000000;stroke-width:0.3;stroke-linecap:round;stroke-linejoin:round;stroke-miterlimit:4;stroke-dasharray:none;stroke-opacity:1" />
    <path
       id="path857"
       d="m 45.515739,14.224317 8.601833,9.821174 -2.867277,-9.821174"
       style="fill:none;stroke:#000000;stroke-width:0.3;stroke-linecap:round;stroke-linejoin:round;stroke-miterlimit:4;stroke-dasharray:none;stroke-opacity:1" />
    <path
       id="path859"
       d="m 62.719404,14.224317 -8.601832,9.821174 v 9.821176"
       style="fill:none;stroke:#000000;stroke-width:0.3;stroke-linecap:round;stroke-linejoin:round;stroke-miterlimit:4;stroke-dasharray:none;stroke-opacity:1" />
    <path
       style="fill:none;stroke:#000000;stroke-width:0.3;stroke-linecap:round;stroke-linejoin:round;stroke-miterlimit:4;stroke-dasharray:none;stroke-opacity:1"
       d="m 84.14977,14.224317 8.601834,9.821174 -2.867282,-9.821174"
       id="path861" />
    <path
       style="fill:none;stroke:#000000;stroke-width:0.3;stroke-linecap:round;stroke-linejoin:round;stroke-miterlimit:4;stroke-dasharray:none;stroke-opacity:1"
       d="m 101.35343,14.224317 -8.601826,9.821174 v 9.821176"
       id="path863" />
    <text
       xml:space="preserve"
       style="font-style:normal;font-variant:normal;font-weight:normal;font-stretch:normal;font-size:3.04836px;line-height:1.25;font-family:'CMU Serif';-inkscape-font-specification:'CMU Serif';fill:#000000;fill-opacity:1;stroke:none;stroke-width:0.3;stroke-miterlimit:4;stroke-dasharray:none"
       x="27.429159"
       y="12.953204"
       id="text2034"><tspan
         sodipodi:role="line"
         id="tspan2032"
         x="27.429159"
         y="12.953204"
         style="font-style:normal;font-variant:normal;font-weight:normal;font-stretch:normal;font-size:3.04836px;font-family:'CMU Serif';-inkscape-font-specification:'CMU Serif';stroke-width:0.3;stroke-miterlimit:4;stroke-dasharray:none">...</tspan></text>
    <text
       id="text2078"
       y="12.898769"
       x="55.549244"
       style="font-style:normal;font-variant:normal;font-weight:normal;font-stretch:normal;font-size:2.52983px;line-height:1.25;font-family:'CMU Serif';-inkscape-font-specification:'CMU Serif';fill:#000000;fill-opacity:1;stroke:none;stroke-width:0.3;stroke-miterlimit:4;stroke-dasharray:none"
       xml:space="preserve"><tspan
         style="font-style:normal;font-variant:normal;font-weight:normal;font-stretch:normal;font-size:2.52983px;font-family:'CMU Serif';-inkscape-font-specification:'CMU Serif';stroke-width:0.3;stroke-miterlimit:4;stroke-dasharray:none"
         y="12.898769"
         x="55.549244"
         id="tspan2076"
         sodipodi:role="line">...</tspan></text>
    <text
       xml:space="preserve"
       style="font-style:normal;font-variant:normal;font-weight:normal;font-stretch:normal;font-size:2.52983px;line-height:1.25;font-family:'CMU Serif';-inkscape-font-specification:'CMU Serif';fill:#000000;fill-opacity:1;stroke:none;stroke-width:0.3;stroke-miterlimit:4;stroke-dasharray:none"
       x="74.317818"
       y="12.898769"
       id="text2090"><tspan
         sodipodi:role="line"
         id="tspan2088"
         x="74.317818"
         y="12.898769"
         style="font-style:normal;font-variant:normal;font-weight:normal;font-stretch:normal;font-size:2.52983px;font-family:'CMU Serif';-inkscape-font-specification:'CMU Serif';stroke-width:0.3;stroke-miterlimit:4;stroke-dasharray:none">...</tspan></text>
    <g
       style="stroke-width:1.0589421;stroke-miterlimit:4;stroke-dasharray:none"
       id="g513"
       transform="matrix(0.28330161,0,0,0.28330161,68.910402,-10.346987)">
      <g
         style="fill:#000000;fill-opacity:1;stroke-width:1.0589421;stroke-miterlimit:4;stroke-dasharray:none"
         id="g2326">
        <use
           style="stroke-width:1.0589421;stroke-miterlimit:4;stroke-dasharray:none"
           xlink:href="#symbol724"
           x="91.925003"
           y="81.962997"
           id="use32"
           width="100%"
           height="100%" />
      </g>
      <g
         style="fill:#000000;fill-opacity:1;stroke-width:1.0589421;stroke-miterlimit:4;stroke-dasharray:none"
         id="g4674">
        <use
           style="stroke-width:1.0589421;stroke-miterlimit:4;stroke-dasharray:none"
           xlink:href="#symbol7180"
           x="95.358002"
           y="83.457001"
           id="use2052"
           width="100%"
           height="100%" />
      </g>
      <g
         style="fill:#000000;fill-opacity:1;stroke-width:1.0589421;stroke-miterlimit:4;stroke-dasharray:none"
         id="g2622">
        <use
           style="stroke-width:1.0589421;stroke-miterlimit:4;stroke-dasharray:none"
           xlink:href="#symbol6812"
           x="102.041"
           y="81.962997"
           id="use2929"
           width="100%"
           height="100%" />
      </g>
      <g
         style="fill:#000000;fill-opacity:1;stroke-width:1.0589421;stroke-miterlimit:4;stroke-dasharray:none"
         id="g478">
        <use
           style="stroke-width:1.0589421;stroke-miterlimit:4;stroke-dasharray:none"
           xlink:href="#symbol4539"
           x="112.003"
           y="81.962997"
           id="use7945"
           width="100%"
           height="100%" />
      </g>
      <g
         style="fill:#000000;fill-opacity:1;stroke-width:1.0589421;stroke-miterlimit:4;stroke-dasharray:none"
         id="g7694">
        <use
           style="stroke-width:1.0589421;stroke-miterlimit:4;stroke-dasharray:none"
           xlink:href="#symbol4539"
           x="116.43436"
           y="81.962997"
           id="use5153"
           width="100%"
           height="100%" />
      </g>
      <g
         style="fill:#000000;fill-opacity:1;stroke-width:1.0589421;stroke-miterlimit:4;stroke-dasharray:none"
         id="g7150">
        <use
           style="stroke-width:1.0589421;stroke-miterlimit:4;stroke-dasharray:none"
           xlink:href="#symbol4539"
           x="120.85577"
           y="81.962997"
           id="use3218"
           width="100%"
           height="100%" />
      </g>
      <g
         style="fill:#000000;fill-opacity:1;stroke-width:1.0589421;stroke-miterlimit:4;stroke-dasharray:none"
         id="g670">
        <use
           style="stroke-width:1.0589421;stroke-miterlimit:4;stroke-dasharray:none"
           xlink:href="#symbol6812"
           x="125.84"
           y="81.962997"
           id="use7861"
           width="100%"
           height="100%" />
      </g>
      <g
         style="fill:#000000;fill-opacity:1;stroke-width:1.0589421;stroke-miterlimit:4;stroke-dasharray:none"
         id="g308">
        <use
           style="stroke-width:1.0589421;stroke-miterlimit:4;stroke-dasharray:none"
           xlink:href="#symbol724"
           x="135.80299"
           y="81.962997"
           id="use9677"
           width="100%"
           height="100%" />
      </g>
      <g
         style="fill:#000000;fill-opacity:1;stroke-width:1.0589421;stroke-miterlimit:4;stroke-dasharray:none"
         id="g2925">
        <use
           style="stroke-width:1.0589421;stroke-miterlimit:4;stroke-dasharray:none"
           xlink:href="#symbol9439"
           x="139.235"
           y="83.457001"
           id="use5023"
           width="100%"
           height="100%" />
      </g>
    </g>
    <g
       style="stroke-width:1.01084989;stroke-miterlimit:4;stroke-dasharray:none"
       id="g3536"
       transform="matrix(0.29677997,0,0,0.29677997,7.0091139,-11.841995)"
       inkscape:label="">
      <g
         style="stroke-width:1.01084989;stroke-miterlimit:4;stroke-dasharray:none"
         id="g2340">
        <g
           style="fill:#000000;fill-opacity:1;stroke-width:1.01084989;stroke-miterlimit:4;stroke-dasharray:none"
           id="g3571">
          <use
             style="stroke-width:1.01084989;stroke-miterlimit:4;stroke-dasharray:none"
             xlink:href="#symbol3161"
             x="91.925003"
             y="81.962997"
             id="use9020"
             width="100%"
             height="100%" />
        </g>
        <g
           style="fill:#000000;fill-opacity:1;stroke-width:1.01084989;stroke-miterlimit:4;stroke-dasharray:none"
           id="g7746">
          <use
             style="stroke-width:1.01084989;stroke-miterlimit:4;stroke-dasharray:none"
             xlink:href="#symbol3370"
             x="95.358002"
             y="83.457001"
             id="use2818"
             width="100%"
             height="100%" />
        </g>
      </g>
    </g>
    <g
       style="stroke-width:0.3;stroke-miterlimit:4;stroke-dasharray:none"
       id="g3677"
       transform="translate(50.48467,18.411817)"
       inkscape:label="">
      <g
         style="stroke-width:1.0589421;stroke-miterlimit:4;stroke-dasharray:none"
         transform="matrix(0.28330161,0,0,0.28330161,-35.449085,-28.568858)"
         id="g8469">
        <g
           style="fill:#000000;fill-opacity:1;stroke-width:1.0589421;stroke-miterlimit:4;stroke-dasharray:none"
           id="g2261">
          <use
             style="stroke-width:1.0589421;stroke-miterlimit:4;stroke-dasharray:none"
             xlink:href="#symbol8287"
             x="91.925003"
             y="81.962997"
             id="use542"
             width="100%"
             height="100%" />
        </g>
        <g
           style="fill:#000000;fill-opacity:1;stroke-width:1.0589421;stroke-miterlimit:4;stroke-dasharray:none"
           id="g5043">
          <use
             style="stroke-width:1.0589421;stroke-miterlimit:4;stroke-dasharray:none"
             xlink:href="#symbol3951"
             x="95.358002"
             y="83.457001"
             id="use8917"
             width="100%"
             height="100%" />
        </g>
        <g
           style="fill:#000000;fill-opacity:1;stroke-width:1.0589421;stroke-miterlimit:4;stroke-dasharray:none"
           id="g6498">
          <use
             style="stroke-width:1.0589421;stroke-miterlimit:4;stroke-dasharray:none"
             xlink:href="#symbol4161"
             x="102.041"
             y="81.962997"
             id="use2970"
             width="100%"
             height="100%" />
        </g>
        <g
           style="fill:#000000;fill-opacity:1;stroke-width:1.0589421;stroke-miterlimit:4;stroke-dasharray:none"
           id="g3511">
          <use
             style="stroke-width:1.0589421;stroke-miterlimit:4;stroke-dasharray:none"
             xlink:href="#symbol1137"
             x="112.00161"
             y="81.962997"
             id="use7668"
             width="100%"
             height="100%" />
        </g>
      </g>
    </g>
  </g>
</svg>
