<?xml version="1.0" encoding="UTF-8" standalone="no"?>
<svg
   xmlns:dc="http://purl.org/dc/elements/1.1/"
   xmlns:cc="http://creativecommons.org/ns#"
   xmlns:rdf="http://www.w3.org/1999/02/22-rdf-syntax-ns#"
   xmlns:svg="http://www.w3.org/2000/svg"
   xmlns="http://www.w3.org/2000/svg"
   xmlns:sodipodi="http://sodipodi.sourceforge.net/DTD/sodipodi-0.dtd"
   xmlns:inkscape="http://www.inkscape.org/namespaces/inkscape"
   sodipodi:docname="loop-product.svg"
   inkscape:version="1.0 (4035a4fb49, 2020-05-01)"
   id="svg8"
   version="1.1"
   viewBox="0 0 200 140"
   height="140mm"
   width="200mm">
  <defs
     id="defs2" />
  <sodipodi:namedview
     inkscape:window-maximized="0"
     inkscape:window-y="0"
     inkscape:window-x="208"
     inkscape:window-height="1040"
     inkscape:window-width="1375"
     showgrid="false"
     inkscape:document-rotation="0"
     inkscape:current-layer="layer1"
     inkscape:document-units="mm"
     inkscape:cy="392.93013"
     inkscape:cx="354.05675"
     inkscape:zoom="0.7"
     inkscape:pageshadow="2"
     inkscape:pageopacity="0.0"
     borderopacity="1.0"
     bordercolor="#666666"
     pagecolor="#ffffff"
     id="base" />
  <metadata
     id="metadata5">
    <rdf:RDF>
      <cc:Work
         rdf:about="">
        <dc:format>image/svg+xml</dc:format>
        <dc:type
           rdf:resource="http://purl.org/dc/dcmitype/StillImage" />
        <dc:title></dc:title>
      </cc:Work>
    </rdf:RDF>
  </metadata>
  <g
     id="layer1"
     inkscape:groupmode="layer"
     inkscape:label="Layer 1">
    <path
       sodipodi:nodetypes="cssc"
       id="path833"
       d="m 72.766995,121.32129 c 0,0 -26.741406,7.83294 -30.240119,4.45072 -2.291339,-2.21503 5.043155,-8.69451 11.896428,-10.55957 10.390201,-2.8276 18.343691,6.10885 18.343691,6.10885 z"
       style="fill:none;stroke:#298a12;stroke-width:0.3;stroke-linecap:butt;stroke-linejoin:miter;stroke-miterlimit:4;stroke-dasharray:none;stroke-opacity:1" />
    <path
       style="fill:none;stroke:#298a12;stroke-width:0.3;stroke-linecap:butt;stroke-linejoin:miter;stroke-miterlimit:4;stroke-dasharray:none;stroke-opacity:1"
       d="m 80.51781,107.95781 c 0,0 -26.741406,7.83294 -30.240119,4.45072 -2.291339,-2.21503 5.043155,-8.69451 11.896428,-10.55957 10.390201,-2.827596 18.343691,6.10885 18.343691,6.10885 z"
       id="path835"
       sodipodi:nodetypes="cssc" />
    <path
       sodipodi:nodetypes="cssc"
       id="path837"
       d="m 88.001357,94.327064 c 0,0 -26.741406,7.832936 -30.240119,4.45072 -2.291339,-2.21503 5.043155,-8.69451 11.896428,-10.55957 10.390201,-2.8276 18.343691,6.10885 18.343691,6.10885 z"
       style="fill:none;stroke:#298a12;stroke-width:0.3;stroke-linecap:butt;stroke-linejoin:miter;stroke-miterlimit:4;stroke-dasharray:none;stroke-opacity:1" />
    <path
       style="fill:none;stroke:#000000;stroke-width:0.5;stroke-linecap:butt;stroke-linejoin:miter;stroke-miterlimit:4;stroke-dasharray:none;stroke-opacity:1"
       d="m 96.019443,80.161779 c 0,0 -26.741406,7.832945 -30.240119,4.450725 -2.291339,-2.215035 5.043155,-8.694515 11.896428,-10.559575 10.390201,-2.8276 18.343691,6.10885 18.343691,6.10885 z"
       id="path839"
       sodipodi:nodetypes="cssc" />
    <path
       sodipodi:nodetypes="cssc"
       id="path841"
       d="m 104.83934,64.392877 c 0,0 -26.741409,7.832945 -30.240122,4.450725 -2.291339,-2.215035 5.043155,-8.694515 11.896428,-10.559575 10.390201,-2.8276 18.343694,6.10885 18.343694,6.10885 z"
       style="fill:none;stroke:#298a12;stroke-width:0.3;stroke-linecap:butt;stroke-linejoin:miter;stroke-miterlimit:4;stroke-dasharray:none;stroke-opacity:1" />
    <path
       style="fill:none;stroke:#298a12;stroke-width:0.3;stroke-linecap:butt;stroke-linejoin:miter;stroke-miterlimit:4;stroke-dasharray:none;stroke-opacity:1"
       d="m 113.12469,49.158514 c 0,0 -26.741404,7.832945 -30.240117,4.450725 -2.291339,-2.215035 5.043155,-8.694515 11.896428,-10.559575 10.390199,-2.8276 18.343689,6.10885 18.343689,6.10885 z"
       id="path843"
       sodipodi:nodetypes="cssc" />
    <path
       sodipodi:nodetypes="cssc"
       id="path845"
       d="m 121.41005,34.19142 c 0,0 -26.741409,7.832945 -30.240122,4.450725 -2.291339,-2.215035 5.043155,-8.694515 11.896432,-10.559575 10.3902,-2.8276 18.34369,6.10885 18.34369,6.10885 z"
       style="fill:none;stroke:#298a12;stroke-width:0.3;stroke-linecap:butt;stroke-linejoin:miter;stroke-miterlimit:4;stroke-dasharray:none;stroke-opacity:1" />
    <path
       style="fill:none;stroke:#298a12;stroke-width:0.3;stroke-linecap:butt;stroke-linejoin:miter;stroke-miterlimit:4;stroke-dasharray:none;stroke-opacity:1"
       d="m 130.36358,17.887979 c 0,0 -26.7414,7.832945 -30.24012,4.450725 -2.291342,-2.215035 5.04316,-8.694515 11.89643,-10.559575 10.3902,-2.8276002 18.34369,6.10885 18.34369,6.10885 z"
       id="path847"
       sodipodi:nodetypes="cssc" />
    <path
       id="path849"
       d="M 66.145274,133.95249 138.30805,4.5940468"
       style="fill:none;stroke:#565656;stroke-width:0.3;stroke-linecap:butt;stroke-linejoin:miter;stroke-miterlimit:4;stroke-dasharray:2.4, 2.4;stroke-dashoffset:0;stroke-opacity:1" />
    <path
       sodipodi:nodetypes="cssc"
       id="path853"
       d="m 164.50046,97.069304 c 0,0 6.10928,-9.91067 11.22532,-11.49259 4.77397,-1.47616 14.39705,-2.047837 14.69983,2.93996 0.55138,9.0831 -25.92515,8.55263 -25.92515,8.55263 z"
       style="fill:none;stroke:#216a8c;stroke-width:0.365;stroke-linecap:butt;stroke-linejoin:miter;stroke-miterlimit:4;stroke-dasharray:none;stroke-opacity:1" />
    <path
       style="fill:none;stroke:#216a8c;stroke-width:0.365;stroke-linecap:butt;stroke-linejoin:miter;stroke-miterlimit:4;stroke-dasharray:none;stroke-opacity:1"
       d="m 138.84259,90.654834 c 0,0 6.10928,-9.910665 11.22532,-11.492585 4.77397,-1.47616 14.39705,-2.04784 14.69983,2.93996 0.55138,9.083095 -25.92515,8.552625 -25.92515,8.552625 z"
       id="path855"
       sodipodi:nodetypes="cssc" />
    <path
       sodipodi:nodetypes="cssc"
       id="path857"
       d="m 116.12468,85.042174 c 0,0 6.10928,-9.910666 11.22532,-11.492586 4.77397,-1.47616 14.39705,-2.04784 14.69983,2.93996 0.55138,9.083096 -25.92515,8.552626 -25.92515,8.552626 z"
       style="fill:none;stroke:#216a8c;stroke-width:0.365;stroke-linecap:butt;stroke-linejoin:miter;stroke-miterlimit:4;stroke-dasharray:none;stroke-opacity:1" />
    <path
       style="fill:none;stroke:#000000;stroke-width:0.665;stroke-linecap:butt;stroke-linejoin:miter;stroke-miterlimit:4;stroke-dasharray:none;stroke-opacity:1"
       d="m 96.019443,80.161779 c 0,0 6.109277,-9.91067 11.225327,-11.49259 4.77397,-1.47616 14.39705,-2.04784 14.69983,2.93996 0.55138,9.0831 -25.925157,8.55263 -25.925157,8.55263 z"
       id="path859"
       sodipodi:nodetypes="cssc" />
    <path
       sodipodi:nodetypes="cssc"
       id="path861"
       d="m 69.35251,73.015045 c 0,0 6.10928,-9.910665 11.22532,-11.492585 4.77397,-1.47616 14.39705,-2.04784 14.69983,2.93996 0.55138,9.083095 -25.92515,8.552625 -25.92515,8.552625 z"
       style="fill:none;stroke:#216a8c;stroke-width:0.365;stroke-linecap:butt;stroke-linejoin:miter;stroke-miterlimit:4;stroke-dasharray:none;stroke-opacity:1" />
    <path
       style="fill:none;stroke:#216a8c;stroke-width:0.365;stroke-linecap:butt;stroke-linejoin:miter;stroke-miterlimit:4;stroke-dasharray:none;stroke-opacity:1"
       d="m 45.832792,67.402385 c 0,0 6.10928,-9.910665 11.22532,-11.492585 4.77397,-1.47616 14.39705,-2.04784 14.69983,2.93996 0.55138,9.083095 -25.92515,8.552625 -25.92515,8.552625 z"
       id="path863"
       sodipodi:nodetypes="cssc" />
    <path
       sodipodi:nodetypes="cssc"
       id="path865"
       d="m 23.114882,61.522456 c 0,0 6.10928,-9.910665 11.22532,-11.492585 4.77397,-1.47616 14.39705,-2.04784 14.69983,2.93996 0.55138,9.083095 -25.92515,8.552625 -25.92515,8.552625 z"
       style="fill:none;stroke:#216a8c;stroke-width:0.365;stroke-linecap:butt;stroke-linejoin:miter;stroke-miterlimit:4;stroke-dasharray:none;stroke-opacity:1" />
    <path
       id="path851"
       d="M 2.2678571,56.444334 197.90915,105.88919"
       style="fill:none;stroke:#565656;stroke-width:0.3;stroke-linecap:butt;stroke-linejoin:miter;stroke-miterlimit:4;stroke-dasharray:2.4, 2.4;stroke-dashoffset:0;stroke-opacity:1" />
  </g>
</svg>
